<?xml version="1.0" standalone="no"?>
<!DOCTYPE svg PUBLIC "-//W3C//DTD SVG 1.1//EN" "http://www.w3.org/Graphics/SVG/1.1/DTD/svg11.dtd" >
<svg xmlns="http://www.w3.org/2000/svg">
<metadata>
This is a custom SVG webfont generated by Font Squirrel.
Copyright   : Copyright  1988 1990 1994 2002 Adobe Systems Incorporated  All Rights Reserved  1981 2002 Heidelberger Druckmaschinen AG All rights reserved
Designer    : Adrian Frutiger
Foundry URL : httpwwwadobecomtype
</metadata>
<defs>
<font id="FrutigerLTStd66BoldItalic" horiz-adv-x="1138" >
<font-face units-per-em="2048" ascent="1536" descent="-512" />
<missing-glyph horiz-adv-x="569" />
<glyph unicode=" "  horiz-adv-x="569" />
<glyph unicode="&#x09;" horiz-adv-x="569" />
<glyph unicode="&#xa0;" horiz-adv-x="569" />
<glyph unicode="!" horiz-adv-x="796" d="M158 0l59 287h287l-60 -287h-286zM272 420l164 1010h322l-258 -1010h-228z" />
<glyph unicode="&#x22;" horiz-adv-x="1024" d="M299 918v512h250v-512h-250zM674 918v512h250v-512h-250z" />
<glyph unicode="#" d="M98 420l23 164h188l37 262h-188l22 164h189l57 420h182l-59 -420h211l57 420h182l-59 -420h188l-22 -164h-184l-37 -262h188l-22 -164h-189l-57 -420h-182l57 420h-213l-57 -420h-181l58 420h-189zM494 584h206l35 262h-207z" />
<glyph unicode="$" d="M18 57l74 250q182 -106 365 -106l88 426q-78 37 -128 66.5t-105.5 77.5t-83 111.5t-27.5 141.5q0 207 150.5 318.5t365.5 111.5l35 172h102l-35 -172q74 0 179.5 -21.5t158.5 -46.5l-72 -233q-164 78 -311 76l-78 -373q78 -37 128 -66.5t108.5 -78.5t87.5 -111.5 t29 -140.5q0 -229 -148.5 -356.5t-382.5 -127.5l-37 -178h-106l37 178q-109 0 -218.5 25.5t-175.5 56.5zM487 1061q0 -100 115 -160l70 328q-76 -4 -130.5 -48t-54.5 -120zM563 201q199 43 199 215q0 100 -119 166z" />
<glyph unicode="%" horiz-adv-x="2048" d="M262 989q0 193 100.5 329t286.5 136q137 0 224.5 -69.5t87.5 -204.5q0 -193 -109 -336.5t-303 -143.5q-131 0 -209 73t-78 216zM430 -45l1110 1520h174l-1110 -1520h-174zM475 967q0 -102 92 -103q53 0 91 34t56.5 88t26 105.5t7.5 102.5q0 96 -107 96q-47 0 -82 -34.5 t-52.5 -88t-24.5 -103.5t-7 -97zM1171 260q0 193 101.5 331t286.5 138q137 0 224 -71.5t87 -206.5q0 -193 -108.5 -334.5t-303.5 -141.5q-133 0 -210 71t-77 214zM1384 238q0 -98 93 -99q53 0 91 33t56 87t25.5 104.5t7.5 101.5q0 100 -107 100q-47 0 -81.5 -34.5t-52 -90 t-25 -105.5t-7.5 -97z" />
<glyph unicode="&#x26;" horiz-adv-x="1478" d="M125 381q0 168 110.5 279.5t282.5 164.5q-35 49 -52 78t-32.5 79t-15.5 110q0 174 126 268t302 94q147 0 271 -85t124 -240.5t-100.5 -245.5t-272.5 -154l207 -297q119 176 125 344h250q-41 -326 -246 -534l166 -242h-307l-51 82q-68 -47 -177.5 -77t-211.5 -30 q-209 0 -353.5 101.5t-144.5 304.5zM399 395q0 -106 70 -156.5t180 -50.5q145 0 242 72l-254 385q-111 -43 -174.5 -97.5t-63.5 -152.5zM680 1083q0 -76 76 -180q248 68 248 225q0 66 -41 95.5t-103 29.5q-80 0 -130 -45t-50 -125z" />
<glyph unicode="'" horiz-adv-x="569" d="M274 918v512h250v-512h-250z" />
<glyph unicode="(" horiz-adv-x="681" d="M109 504q0 131 25.5 252t61 212t106.5 200.5t128 183.5l158 196h291q-129 -156 -207 -265t-145.5 -245.5t-97.5 -285t-30 -330.5q0 -354 109 -709h-234q-59 188 -82.5 271.5t-53 238t-29.5 281.5z" />
<glyph unicode=")" horiz-adv-x="681" d="M-123 -287q129 156 207 265.5t145.5 245.5t97 284.5t29.5 331.5q0 354 -108 708h233q59 -188 83 -271t53.5 -237.5t29.5 -281.5q0 -131 -25.5 -252t-61.5 -212t-106.5 -200.5t-127.5 -183.5l-158 -197h-291z" />
<glyph unicode="*" d="M256 1116l115 197l243 -178l29 295l215 -48l-94 -278l291 55l16 -213h-289l146 -241l-205 -95l-92 283l-211 -234l-148 162l254 176z" />
<glyph unicode="+" horiz-adv-x="1228" d="M125 412v213h414v411h213v-411h413v-213h-413v-412h-213v412h-414z" />
<glyph unicode="," horiz-adv-x="569" d="M-76 -225l209 512h309l-272 -512h-246z" />
<glyph unicode="-" horiz-adv-x="796" d="M121 438l47 226h539l-48 -226h-538z" />
<glyph unicode="." horiz-adv-x="569" d="M43 0l59 287h287l-59 -287h-287z" />
<glyph unicode="/" horiz-adv-x="569" d="M-174 -25l780 1479h238l-781 -1479h-237z" />
<glyph unicode="0" d="M94 479q0 150 36 309.5t105.5 313t197.5 253t292 99.5q408 0 408 -475q0 -100 -13.5 -205.5t-41 -221.5t-77 -216t-116 -182t-162.5 -130.5t-213 -48.5q-215 0 -315.5 140.5t-100.5 363.5zM369 424q0 -236 161 -236q86 0 154 110t103.5 262.5t53 278.5t17.5 191 q0 211 -133 211q-92 0 -167 -103.5t-112.5 -249t-57 -269t-19.5 -195.5z" />
<glyph unicode="1" d="M254 1116l479 314h260l-309 -1430h-287l244 1104l-262 -182z" />
<glyph unicode="2" d="M-18 0l45 236q68 63 223 187l262 213q106 89 195.5 199.5t89.5 192.5q0 94 -61.5 147.5t-153.5 53.5q-156 0 -330 -123l-6 256q240 92 385 92q199 0 332 -97t133 -290q0 -51 -14.5 -104.5t-33 -97.5t-57.5 -98l-66 -91q-28 -37 -84 -90l-85 -81q-29 -28 -94 -80l-89 -70 l-89 -67q-67 -50 -76 -59v-4h557l-43 -225h-940z" />
<glyph unicode="3" d="M14 57l52 219q160 -76 346 -75q121 0 214 58t93 177q0 55 -31 93t-68.5 56.5t-102 29t-101.5 11.5t-99 1l39 225q61 0 96 1t98.5 7t102.5 21.5t80 40t61.5 66.5t20.5 97q0 143 -217 144q-154 0 -313 -76l28 240q203 61 359 61q184 0 313 -85t129 -257q0 -150 -91 -240 t-245 -122v-7q119 -43 179.5 -112.5t60.5 -186.5q0 -229 -171 -349t-413 -120q-248 0 -420 82z" />
<glyph unicode="4" d="M27 297l30 244l715 889h356l-198 -920h200l-45 -213h-196l-64 -297h-274l63 297h-587zM313 510h349l145 670h-4z" />
<glyph unicode="5" d="M76 43l47 231q180 -74 309 -73q137 0 234.5 72.5t97.5 205.5q0 117 -84 169t-209 52q-127 0 -254 -41l172 771h819l-45 -213h-549l-65 -293q25 2 76 2q190 0 314 -107.5t124 -326.5q0 -242 -169 -379.5t-423 -137.5q-200 0 -395 68z" />
<glyph unicode="6" d="M115 481q0 180 44 348t131 310.5t235.5 228.5t336.5 86q197 0 330 -59l-72 -209q-106 43 -239 43q-162 0 -267.5 -103.5t-158.5 -269.5h4q102 68 223 68q182 0 284.5 -105.5t102.5 -286.5q0 -244 -138 -400.5t-378 -156.5q-225 0 -331.5 136.5t-106.5 369.5zM389 406 q0 -88 43 -153t119 -65q115 0 173 102.5t58 229.5q0 190 -166 191q-111 0 -169 -93t-58 -212z" />
<glyph unicode="7" d="M80 0l772 1204h-643l43 226h948l-53 -261l-735 -1169h-332z" />
<glyph unicode="8" d="M70 352q0 315 346 420q-74 43 -121 116t-47 154q0 203 144.5 307.5t361.5 104.5q104 0 199.5 -30.5t166 -106.5t70.5 -184q0 -147 -79 -246t-224 -135q193 -111 192 -310q0 -229 -148.5 -348t-395.5 -119q-188 0 -326.5 102.5t-138.5 274.5zM356 381q0 -92 58.5 -142.5 t150.5 -50.5q96 0 162 62.5t66 159.5q0 43 -10.5 75.5t-42 65.5t-46 45l-63.5 51q-275 -100 -275 -266zM510 1049q0 -102 170 -203q55 20 90 37.5t76 46t61.5 67.5t20.5 90q0 76 -58.5 115t-134.5 39q-88 0 -156.5 -53t-68.5 -139z" />
<glyph unicode="9" d="M45 35l72 209q106 -43 239 -43q162 0 267.5 103.5t158.5 268.5h-4q-102 -68 -223 -67q-182 0 -284.5 105.5t-102.5 285.5q0 244 138 400.5t378 156.5q225 0 331.5 -136t106.5 -370q0 -180 -44 -348t-131 -310.5t-235.5 -228.5t-336.5 -86q-197 1 -330 60zM455 909 q0 -190 166 -190q111 0 169 93t58 212q0 88 -43 152.5t-119 64.5q-115 0 -173 -102.5t-58 -229.5z" />
<glyph unicode=":" horiz-adv-x="569" d="M43 0l59 287h287l-59 -287h-287zM203 768l59 287h287l-60 -287h-286z" />
<glyph unicode=";" horiz-adv-x="569" d="M-76 -225l209 512h309l-272 -512h-246zM203 768l59 287h287l-60 -287h-286z" />
<glyph unicode="&#x3c;" horiz-adv-x="1228" d="M125 430v176l1040 447v-209l-764 -326l764 -325v-209z" />
<glyph unicode="=" horiz-adv-x="1228" d="M125 188v213h1040v-213h-1040zM125 635v213h1040v-213h-1040z" />
<glyph unicode="&#x3e;" horiz-adv-x="1228" d="M125 -16v209l764 325l-764 326v209l1040 -447v-176z" />
<glyph unicode="?" horiz-adv-x="1024" d="M229 0l60 287h286l-59 -287h-287zM246 1190v229q170 35 291 35q127 0 234.5 -34t186 -121t78.5 -218q0 -63 -17.5 -117.5t-56 -100.5t-70.5 -75.5t-91.5 -76.5t-87.5 -72q-133 -117 -142 -219h-249q18 147 79.5 240.5t192.5 193.5q45 35 70.5 60.5t49 68.5t23.5 92 q0 82 -73.5 124t-163.5 42q-137 0 -254 -51z" />
<glyph unicode="@" horiz-adv-x="1638" d="M125 715q0 309 226.5 524t566.5 215q129 0 248.5 -36t221 -106.5t163 -189t61.5 -270.5q0 -147 -60.5 -264t-148.5 -179.5t-169 -94t-138 -31.5q-45 0 -77 27.5t-34 78.5h-4q-94 -106 -207 -106q-131 0 -224 96t-93 242q0 203 124 348t298 145q150 0 237 -131l25 98h172 l-113 -497q-14 -53 -14 -70q0 -31 31 -31q88 0 159.5 93.5t71.5 269.5q0 119 -47 205t-128 131t-169 64.5t-186 19.5q-250 0 -415 -164t-165 -387q0 -238 150.5 -394.5t379.5 -156.5q319 0 473 129h175q-215 -317 -648 -318q-137 0 -267 47.5t-237.5 136.5t-173 233.5 t-65.5 322.5zM670 651q0 -74 41 -121t112 -47q94 0 161 83t67 184q0 74 -42 118.5t-110 44.5q-96 0 -162.5 -82t-66.5 -180z" />
<glyph unicode="A" horiz-adv-x="1478" d="M-86 0l866 1430h318l260 -1430h-287l-49 328h-608l-183 -328h-317zM541 553h442l-90 623h-8z" />
<glyph unicode="B" horiz-adv-x="1251" d="M43 0l299 1430h424q188 0 310 -81t122 -262q0 -127 -89 -223t-216 -116v-5q115 -18 172 -99t57 -202q0 -117 -51 -202.5t-121.5 -129.5t-172 -71t-173.5 -33t-153 -6h-408zM365 225h98q80 0 135 7.5t114.5 30t91.5 73.5t32 131q0 102 -78 137t-215 35h-92zM496 852h112 q303 0 303 209q0 49 -20.5 79.5t-60 44t-73.5 16.5t-85 3h-101z" />
<glyph unicode="C" horiz-adv-x="1251" d="M141 653q0 352 223.5 576.5t596.5 224.5q250 0 419 -70l-71 -239q-123 84 -328 84q-238 0 -389.5 -162t-151.5 -414q0 -186 113 -319t295 -133q154 0 301 88l-45 -275q-141 -39 -324 -39q-313 0 -476 187.5t-163 490.5z" />
<glyph unicode="D" horiz-adv-x="1478" d="M63 0l302 1430h430q123 0 227 -27t201.5 -91.5t154 -189.5t56.5 -303q0 -109 -22.5 -213t-84 -217t-157 -196.5t-257 -138t-368.5 -54.5h-482zM399 225h133q303 0 453 166t150 469q0 164 -117 254t-316 90h-98z" />
<glyph unicode="E" d="M63 0l302 1430h841l-43 -226h-559l-74 -352h500l-45 -225h-502l-84 -402h566l-50 -225h-852z" />
<glyph unicode="F" horiz-adv-x="1024" d="M63 0l302 1430h788l-49 -226h-500l-76 -352h478l-45 -225h-480l-131 -627h-287z" />
<glyph unicode="G" horiz-adv-x="1478" d="M152 610q0 389 234.5 616.5t623.5 227.5q268 0 477 -80l-72 -248q-158 102 -397 103q-256 0 -411.5 -175t-155.5 -436q0 -178 111.5 -297.5t291.5 -119.5q109 0 141 14l80 379h-303l47 225h580l-164 -780q-154 -63 -383 -64q-328 0 -514 156.5t-186 478.5z" />
<glyph unicode="H" horiz-adv-x="1478" d="M63 0l299 1430h287l-121 -578h578l121 578h286l-299 -1430h-286l131 627h-578l-131 -627h-287z" />
<glyph unicode="I" horiz-adv-x="569" d="M35 0l301 1430h299l-301 -1430h-299z" />
<glyph unicode="J" horiz-adv-x="796" d="M-70 4l66 244q63 -23 131 -23q104 0 154.5 63.5t72.5 178.5l201 963h287l-201 -971q-47 -244 -146.5 -364t-324.5 -120q-131 0 -240 29z" />
<glyph unicode="K" horiz-adv-x="1366" d="M63 0l308 1430h286l-120 -562h4l567 562h399l-723 -652l461 -778h-342l-397 727l-156 -727h-287z" />
<glyph unicode="L" horiz-adv-x="1024" d="M47 0l303 1430h287l-256 -1205h561l-49 -225h-846z" />
<glyph unicode="M" horiz-adv-x="1933" d="M63 0l304 1430h473l96 -1031h4l563 1031h477l-305 -1430h-303l270 1184h-4l-647 -1184h-274l-115 1184h-4l-262 -1184h-273z" />
<glyph unicode="N" horiz-adv-x="1478" d="M51 0l307 1430h363l305 -1086h4l234 1086h270l-309 -1430h-369l-299 1096h-4l-227 -1096h-275z" />
<glyph unicode="O" horiz-adv-x="1593" d="M141 569q0 354 226 619q233 266 587 266q289 0 442.5 -158.5t153.5 -447.5q0 -365 -239 -633q-215 -240 -606 -240q-258 0 -411 167t-153 427zM440 553q0 -150 77 -251t224 -101q154 0 275 111.5t178 264t57 302.5q0 152 -78.5 251t-226.5 99q-119 0 -218 -64.5 t-160.5 -166t-94.5 -217t-33 -228.5z" />
<glyph unicode="P" d="M43 0l303 1430h242q70 0 119 -2.5t119.5 -9.5t119.5 -21.5t103.5 -42t88 -66.5t55 -97t21.5 -132q0 -248 -174 -382t-430 -134h-166l-114 -543h-287zM494 768h102q129 0 224 67.5t95 192.5q0 176 -239 176h-90z" />
<glyph unicode="Q" horiz-adv-x="1593" d="M141 569q0 354 226 619q233 266 587 266q289 0 442.5 -158.5t153.5 -447.5q0 -365 -239 -633q-113 -129 -285 -186l301 -299h-342l-209 247q-25 -2 -71 -2q-258 0 -411 167t-153 427zM440 553q0 -150 77 -251t224 -101q154 0 275 111.5t178 264t57 302.5q0 152 -78.5 251 t-226.5 99q-119 0 -218 -64.5t-160.5 -166t-94.5 -217t-33 -228.5z" />
<glyph unicode="R" horiz-adv-x="1251" d="M43 0l299 1430h338h90q27 0 87.5 -3.5t89 -8.5t78.5 -16t75.5 -27.5t58.5 -43t49.5 -59.5t28.5 -79t12 -101q0 -178 -117.5 -277.5t-300.5 -103.5v-4q117 -6 146 -132l137 -575h-301l-70 336l-13 71q-9 48 -13 65t-16.5 48t-29 42t-43 21.5t-65.5 10.5h-108l-125 -594 h-287zM506 819h104q88 0 159 18.5t126 74t55 143.5q0 43 -15 72.5t-35.5 45t-59.5 22.5t-63.5 8t-71.5 1h-119z" />
<glyph unicode="S" d="M20 55l74 244q213 -98 350 -98q113 0 193 57t80 166q0 70 -50.5 123t-122 91t-143 82t-122 121t-50.5 181q0 109 44 193.5t120 136t169 77t200 25.5q213 0 371 -63l-68 -236q-143 74 -297 74q-92 0 -166 -40t-74 -124q0 -61 50.5 -111.5t122 -90.5t143 -88t122 -130 t50.5 -192q0 -246 -165 -362t-423 -116q-189 0 -408 80z" />
<glyph unicode="T" d="M172 1204l49 226h1104l-47 -226h-404l-260 -1204h-299l260 1204h-403z" />
<glyph unicode="U" horiz-adv-x="1478" d="M195 653l163 777h287l-145 -678l-21 -96q-8 -38 -16 -100q-7 -50 -7 -88q0 -10 1 -18q2 -44 13 -94.5t38 -81t74 -52t112 -21.5q61 0 112.5 17.5t87.5 40t66.5 68.5t48 78.5t37 97t26.5 97.5l24 105l155 725h283l-191 -865q-66 -293 -216 -441.5t-435 -148.5 q-523 0 -522 457q0 99 25 221z" />
<glyph unicode="V" horiz-adv-x="1366" d="M219 1430h287l133 -1113h4l594 1113h311l-798 -1430h-342z" />
<glyph unicode="W" horiz-adv-x="2048" d="M219 1430h287l43 -1096h4l475 1096h385l6 -1096h4l506 1096h297l-682 -1430h-358l-15 1143h-4l-503 -1143h-355z" />
<glyph unicode="X" horiz-adv-x="1366" d="M-90 0l661 776l-313 654h309l207 -492h4l393 492h338l-591 -682l331 -748h-313l-219 573h-4l-447 -573h-356z" />
<glyph unicode="Y" horiz-adv-x="1366" d="M219 1430h303l213 -601l465 601h334l-692 -838l-125 -592h-287l125 592z" />
<glyph unicode="Z" d="M-27 0l45 225l861 979h-625l49 226h981l-49 -226l-862 -979h651l-47 -225h-1004z" />
<glyph unicode="[" horiz-adv-x="796" d="M63 -287l406 1835h467l-43 -200h-217l-318 -1434h215l-43 -201h-467z" />
<glyph unicode="\" horiz-adv-x="569" d="M-20 1454h213l499 -1479h-213z" />
<glyph unicode="]" horiz-adv-x="796" d="M-61 -287l43 201h217l317 1434h-215l43 200h467l-405 -1835h-467z" />
<glyph unicode="^" horiz-adv-x="1228" d="M176 641l383 789h193l383 -789h-213l-267 573l-266 -573h-213z" />
<glyph unicode="_" horiz-adv-x="1024" d="M0 -154h1024v-102h-1024v102z" />
<glyph unicode="`" horiz-adv-x="569" d="M168 1497h272l166 -299h-174z" />
<glyph unicode="a" d="M43 276q0 100 44 173t107.5 111t159 59.5t169 26.5t167.5 5h96q8 29 9 90q0 74 -62.5 106t-148.5 32q-172 0 -346 -82l38 219q180 63 358.5 63t294 -76.5t115.5 -248.5q0 -78 -59 -377t-70 -377h-231l29 162h-4q-76 -94 -154 -140.5t-186 -46.5q-147 0 -236.5 79 t-89.5 222zM305 287q0 -53 41 -82t98 -29q139 0 206 80t106 231h-97q-354 1 -354 -200z" />
<glyph unicode="b" horiz-adv-x="1251" d="M43 0l326 1536h280l-135 -586v-4l4 4l2 -4q119 133 283 133q190 0 288.5 -116.5t98.5 -311.5q0 -172 -58.5 -321.5t-187.5 -252t-303 -102.5q-117 0 -179.5 34t-123.5 141h-4l-33 -150h-258zM420 436q0 -111 43 -179.5t137 -68.5q106 0 179 82t98.5 178.5t25.5 192.5 q0 100 -50 162.5t-142 62.5q-129 0 -210 -137t-81 -293z" />
<glyph unicode="c" horiz-adv-x="909" d="M84 430q0 281 171 465t452 184q141 0 274 -41l-68 -225q-82 53 -200 53q-156 0 -249 -121.5t-93 -281.5q0 -274 233 -275q113 0 223 54l-30 -217q-100 -49 -265 -50q-203 0 -325.5 125t-122.5 330z" />
<glyph unicode="d" horiz-adv-x="1251" d="M84 414q0 121 34 237.5t96 213t166.5 155.5t233.5 59q195 0 326 -149l133 606h275l-285 -1303q-33 -180 -39 -233h-256l27 156h-4q-129 -180 -345 -181q-178 0 -270 126.5t-92 312.5zM371 438q0 -61 12 -113.5t52 -94.5t104 -42q141 0 230 134.5t89 293.5q0 102 -50 176 t-149 74q-92 0 -160.5 -75.5t-98 -171t-29.5 -181.5z" />
<glyph unicode="e" d="M66 436q0 254 174 448.5t426 194.5q201 0 316.5 -102.5t115.5 -298.5q0 -109 -27 -236h-743q0 -141 73.5 -203.5t219.5 -62.5q160 0 323 76l-35 -217q-193 -59 -336 -60q-236 0 -371.5 117t-135.5 344zM365 631h464q6 37 7 71q0 176 -174 177q-119 0 -185.5 -63.5 t-111.5 -184.5z" />
<glyph unicode="f" horiz-adv-x="796" d="M109 854l43 201h213q18 90 38.5 156.5t56.5 136t84 113.5t120.5 72t164.5 28q86 0 170 -27l-63 -205q-37 18 -84 19q-51 0 -89 -26t-60.5 -73t-35 -84t-24.5 -92q-2 -12 -4 -18h246l-43 -201h-246l-180 -854h-275l181 854h-213z" />
<glyph unicode="g" horiz-adv-x="1251" d="M10 -383l70 223q197 -82 332 -82q100 0 167.5 28t111.5 99.5t62.5 121.5t49.5 165q6 18 8 29h-4q-51 -94 -145.5 -147.5t-208.5 -53.5q-180 0 -273.5 129t-93.5 317q0 254 145.5 443.5t389.5 189.5q215 0 321 -178l31 154h264q-14 -47 -35 -148l-168 -792 q-55 -279 -192 -424.5t-410 -145.5q-234 0 -422 72zM373 449q0 -102 43 -169t131 -67q152 0 230.5 131t78.5 301q0 96 -53 158.5t-145.5 62.5t-161 -73.5t-96 -164.5t-27.5 -179z" />
<glyph unicode="h" horiz-adv-x="1251" d="M43 0l328 1536h274l-131 -584h4q137 127 299 127q156 0 250 -91t94 -247q0 -70 -35 -229l-110 -512h-275l103 498q31 154 30 221q0 66 -41.5 106.5t-107.5 40.5q-221 0 -295 -336l-113 -530h-274z" />
<glyph unicode="i" horiz-adv-x="569" d="M43 0l225 1055h275l-226 -1055h-274zM311 1247l58 262h274l-57 -262h-275z" />
<glyph unicode="j" horiz-adv-x="569" d="M-211 -430l66 201q37 -12 61 -13q45 0 67.5 36t36.5 106l248 1155h275l-226 -1051q-57 -268 -122.5 -363.5t-223.5 -95.5q-94 0 -182 25zM311 1247l58 262h274l-57 -262h-275z" />
<glyph unicode="k" d="M43 0l326 1536h274l-182 -864h4l383 383h356l-506 -482l318 -573h-309l-273 559h-4l-119 -559h-268z" />
<glyph unicode="l" horiz-adv-x="569" d="M43 0l326 1536h274l-326 -1536h-274z" />
<glyph unicode="m" horiz-adv-x="1820" d="M43 0l193 938l22 117h256l-25 -142h5q113 166 323 166q98 0 178 -55t90 -145h5q49 98 151 149t219 51q119 0 206 -85t87 -203q0 -106 -47 -287l-111 -504h-274l111 514q35 154 34 225q0 57 -37.5 92t-91.5 35q-39 0 -73.5 -14t-57 -30.5t-45 -54.5t-34 -59.5t-27 -72.5 t-19.5 -66.5t-16 -66.5l-109 -502h-274l111 514q35 154 34 225q0 57 -37.5 92t-91 35t-97.5 -26.5t-68.5 -58t-49 -93t-32.5 -92.5l-25 -94l-109 -502h-274z" />
<glyph unicode="n" horiz-adv-x="1251" d="M43 0l195 903q23 113 26 152h268l-18 -103h4q137 127 299 127q156 0 250 -91t94 -247q0 -70 -35 -229l-110 -512h-275l103 498q31 154 30 221q0 66 -41.5 106.5t-107.5 40.5q-221 0 -295 -336l-113 -530h-274z" />
<glyph unicode="o" horiz-adv-x="1251" d="M84 457q0 264 179 443t446 179q217 0 350 -124t133 -339q0 -281 -175 -461t-454 -180q-223 0 -351 129.5t-128 352.5zM371 436q0 -248 215 -248q100 0 176 71t109.5 165t33.5 190q0 252 -209 252q-102 0 -179 -69.5t-111.5 -165t-34.5 -195.5z" />
<glyph unicode="p" horiz-adv-x="1251" d="M-49 -430l278 1348q18 92 23 137h260l-31 -140h4q117 164 318 164q190 0 288.5 -116.5t98.5 -311.5q0 -172 -58.5 -321.5t-187.5 -252t-303 -102.5q-233 0 -291 189h-4l-121 -594h-274zM420 436q0 -111 43 -179.5t137 -68.5q106 0 179 82t98.5 178.5t25.5 192.5 q0 100 -50 162.5t-142 62.5q-129 0 -210 -137t-81 -293z" />
<glyph unicode="q" horiz-adv-x="1251" d="M84 414q0 121 34 237.5t96 213t166.5 155.5t233.5 59q121 0 198 -46t116 -154h4l39 176h264q-25 -80 -45 -181l-277 -1304h-274l127 567l-4 4q-90 -166 -316 -166q-178 0 -270 126.5t-92 312.5zM371 438q0 -61 12 -113.5t52 -94.5t104 -42q141 0 230 134.5t89 293.5 q0 102 -50 176t-149 74q-92 0 -160.5 -75.5t-98 -171t-29.5 -181.5z" />
<glyph unicode="r" horiz-adv-x="796" d="M43 0l188 913l25 142h262l-37 -199h4q39 88 129.5 155.5t182.5 67.5q63 0 104 -10l-57 -268q-49 16 -105 16q-135 0 -214 -98t-109 -246l-99 -473h-274z" />
<glyph unicode="s" horiz-adv-x="909" d="M-4 39l59 219q147 -82 262 -82q78 0 133.5 28.5t55.5 88.5q0 47 -37 86t-89 70.5t-104.5 68.5t-89 94.5t-36.5 130.5q0 88 39.5 156t107.5 105.5t145.5 56t163.5 18.5q131 0 299 -43l-59 -207q-133 49 -225 50q-74 0 -129.5 -25t-55.5 -82q0 -37 37 -71.5t89 -67.5 t104.5 -72t89.5 -98.5t37 -130.5q0 -98 -40 -171t-111 -112t-150.5 -56.5t-174.5 -17.5q-186 1 -321 64z" />
<glyph unicode="t" horiz-adv-x="796" d="M109 854l43 201h198l47 217l295 96l-67 -313h245l-43 -201h-245l-101 -461q-12 -49 -12 -102q0 -47 28.5 -75t75.5 -28q74 0 134 25l-48 -213q-113 -25 -147 -25q-317 0 -317 277q0 88 34 246l78 356h-198z" />
<glyph unicode="u" horiz-adv-x="1251" d="M111 313q0 70 34 230l111 512h274l-102 -498q-31 -154 -31 -221q0 -66 42 -107t108 -41q221 0 295 336l112 531h275l-195 -903q-23 -113 -26 -152h-269l19 102h-4q-137 -127 -299 -127q-156 0 -250 91t-94 247z" />
<glyph unicode="v" d="M135 1055h281l106 -774h4l416 774h291l-617 -1055h-303z" />
<glyph unicode="w" horiz-adv-x="1820" d="M135 1055h275l75 -793h4l388 793h305l57 -793h4l406 793h280l-586 -1055h-309l-59 807h-4l-385 -807h-312z" />
<glyph unicode="x" d="M-84 0l477 551l-223 504h285l137 -363l297 363h328l-449 -504l252 -551h-299l-162 403l-315 -403h-328z" />
<glyph unicode="y" d="M-100 -426l61 209q66 -25 121 -25q63 0 116.5 41t123.5 150l-187 1106h281l98 -785h4l420 785h301l-715 -1215q-53 -90 -96 -144t-129 -102.5t-195 -48.5q-100 0 -204 29z" />
<glyph unicode="z" horiz-adv-x="1024" d="M-31 0l43 213l650 629h-486l47 213h830l-45 -213l-646 -629h529l-39 -213h-883z" />
<glyph unicode="{" horiz-adv-x="681" d="M31 543l39 176q78 0 144.5 45t80.5 117l90 403q29 119 119 191.5t213 72.5h174l-35 -164h-86q-111 0 -143 -143l-88 -387q-39 -178 -265 -221v-4q115 -8 148 -67.5t10 -172.5l-86 -381q-20 -55 -7 -93t77 -38h96l-35 -164h-176q-270 0 -203 307l70 310q29 98 1.5 155.5 t-138.5 57.5z" />
<glyph unicode="|" horiz-adv-x="454" d="M172 -512v2048h213v-2048h-213z" />
<glyph unicode="}" horiz-adv-x="681" d="M-143 -287l34 164h86q111 0 144 143l88 388q39 178 264 221v4q-115 8 -147.5 67.5t-10.5 171.5l86 381q20 55 7 93t-76 38h-96l34 164h176q270 0 203 -307l-69 -309q-29 -98 -1.5 -155.5t138.5 -57.5l-39 -176q-78 0 -144.5 -45t-80.5 -117l-91 -404 q-29 -119 -118.5 -191.5t-212.5 -72.5h-174z" />
<glyph unicode="~" horiz-adv-x="1228" d="M172 516q94 180 248 180q109 0 239 -69q6 -2 35 -17l37 -18q8 -4 32.5 -14.5t38 -13.5t34 -7t38.5 -4q33 0 67 24.5t53.5 50t49.5 72.5l74 -180q-106 -180 -235 -180q-98 0 -238 72q-135 72 -223 71q-109 0 -176 -147z" />
<glyph unicode="&#xa1;" horiz-adv-x="796" d="M39 -375l258 1010h227l-164 -1010h-321zM293 768l59 287h287l-59 -287h-287z" />
<glyph unicode="&#xa2;" d="M195 430q0 281 171 465t451 184h14l70 230h107l-72 -240q76 -8 156 -31l-68 -225q-72 47 -147 57l-207 -675q16 -6 45 -7q113 0 223 54l-31 -217q-100 -49 -264 -50q-29 0 -39 2l-80 -262h-106l86 281q-145 37 -227 152.5t-82 281.5zM481 463q0 -170 92 -234l193 637 q-131 -25 -208 -143.5t-77 -259.5z" />
<glyph unicode="&#xa3;" d="M0 0l47 213h176l99 449h-156l35 163h153q29 158 66 262.5t104.5 193.5t175 131t263.5 42q143 0 284 -51l-61 -232q-115 57 -211 58q-84 0 -142.5 -29t-92 -87t-52 -112.5t-39.5 -138.5q-6 -25 -8 -37h317l-34 -163h-316l-98 -449h477l-47 -213h-940z" />
<glyph unicode="&#xa4;" d="M90 307l119 119q-94 133 -94 293q0 158 94 293l-119 118l121 121l119 -118q131 94 293 94q158 0 292 -94l119 118l121 -121l-119 -118q94 -131 94 -291q0 -158 -94 -295l119 -119l-121 -121l-119 119q-135 -94 -292.5 -94t-292.5 94l-119 -119zM340 719q0 -121 83 -208 t199.5 -87t199.5 87t83 208t-83 208t-199.5 87t-199.5 -87t-83 -208z" />
<glyph unicode="&#xa5;" d="M109 301l32 164h295l25 127h-299l33 164h225l-277 674h289l203 -601l442 601h316l-553 -674h227l-33 -164h-299l-28 -127h303l-33 -164h-299l-60 -301h-274l64 301h-299z" />
<glyph unicode="&#xa6;" horiz-adv-x="454" d="M172 358h213v-716h-213v716zM172 666v716h213v-716h-213z" />
<glyph unicode="&#xa7;" d="M33 -197l69 207q197 -76 336 -76q55 0 103.5 8.5t92.5 39t44 81.5q0 57 -50 99.5t-123 74t-145.5 69.5t-123 107.5t-50.5 166.5q0 109 73 188.5t175 114.5q-117 92 -117 209q0 178 134.5 270t320.5 92q225 0 397 -86l-79 -201q-131 74 -306 74q-90 0 -159.5 -30.5 t-69.5 -96.5q0 -55 51 -96t125 -74t147.5 -70.5t125 -106.5t51.5 -161q0 -98 -68.5 -180t-167.5 -121q109 -88 109 -203q0 -184 -135.5 -282.5t-329.5 -98.5q-190 0 -430 82zM399 614q0 -43 37 -81.5t70 -58t101.5 -49.5t74.5 -34q33 16 56.5 31.5t50 38t40 51.5t13.5 61.5 t-19.5 62.5t-56.5 54.5t-66.5 42t-74.5 38l-58 26.5q-37 -18 -59.5 -31.5t-51 -36t-43 -51.5t-14.5 -64z" />
<glyph unicode="&#xa8;" horiz-adv-x="569" d="M66 1247l51 238h233l-51 -238h-233zM492 1247l51 238h233l-51 -238h-233z" />
<glyph unicode="&#xa9;" horiz-adv-x="1638" d="M125 715q0 305 217 522t522 217t522.5 -217t217.5 -522t-217.5 -522.5t-522.5 -217.5t-522 217.5t-217 522.5zM338 715q0 -254 150.5 -415t375.5 -161q223 0 375 162t152 414t-152 413.5t-375 161.5q-225 0 -375.5 -161.5t-150.5 -413.5zM475 721q0 190 111.5 313 t302.5 123q141 0 238.5 -80t117.5 -227h-164q-14 70 -66 106.5t-126 36.5q-100 0 -156.5 -73.5t-56.5 -196.5q0 -117 60.5 -195.5t156.5 -78.5q78 0 129 38.5t59 108.5h170q-23 -145 -122 -228t-236 -83q-186 0 -302 124t-116 312z" />
<glyph unicode="&#xaa;" horiz-adv-x="739" d="M147 969q0 76 41 126t115 69.5t131.5 25.5t134.5 6h60q0 6 2 17.5t3 20.5t1 17q0 37 -39 58.5t-94 21.5q-111 0 -226 -57l25 143q113 37 234 37q276 0 276 -197q0 -47 -47 -282q-23 -113 -31 -172h-178l20 98h-4q-80 -115 -221 -115q-94 0 -148.5 48.5t-54.5 134.5z M324 975q0 -31 29.5 -48.5t66.5 -17.5q137 0 182 176h-41q-237 1 -237 -110z" />
<glyph unicode="&#xab;" horiz-adv-x="1251" d="M94 551l307 420h287l-323 -420l143 -420h-236zM549 551l307 420h287l-324 -420l144 -420h-236z" />
<glyph unicode="&#xac;" horiz-adv-x="1228" d="M125 635v213h1040v-627h-213v414h-827z" />
<glyph unicode="&#xad;" horiz-adv-x="796" d="M121 438l47 226h539l-48 -226h-538z" />
<glyph unicode="&#xae;" horiz-adv-x="1638" d="M125 715q0 305 217 522t522 217t522.5 -217t217.5 -522t-217.5 -522.5t-522.5 -217.5t-522 217.5t-217 522.5zM338 715q0 -254 150.5 -415t375.5 -161q223 0 375 162t152 414t-152 413.5t-375 161.5q-225 0 -375.5 -161.5t-150.5 -413.5zM567 307v821h310 q164 0 245.5 -56t81.5 -189q0 -201 -217 -219l217 -357h-180l-197 348h-84v-348h-176zM743 791h144q72 0 106.5 21.5t34.5 86.5q0 94 -160 94h-125v-202z" />
<glyph unicode="&#xaf;" horiz-adv-x="569" d="M109 1266l32 164h609l-31 -164h-610z" />
<glyph unicode="&#xb0;" horiz-adv-x="819" d="M186 1124q0 137 96.5 233.5t233.5 96.5t233.5 -96t96.5 -234q0 -139 -95.5 -234t-234.5 -95q-143 0 -236.5 93t-93.5 236zM336 1124q0 -80 50 -130t130 -50t130 50t50 130t-50 130.5t-130 50.5t-130 -50.5t-50 -130.5z" />
<glyph unicode="&#xb1;" horiz-adv-x="1228" d="M125 0v213h1040v-213h-1040zM125 553v213h414v270h213v-270h413v-213h-413v-272h-213v272h-414z" />
<glyph unicode="&#xb2;" horiz-adv-x="739" d="M55 578l29 143l293 225q6 6 45 35t58.5 45t48 45t42 55.5t13.5 51.5q0 49 -37 74.5t-101 25.5q-84 0 -215 -53l-6 174q162 55 273 55q135 0 229 -53t94 -178q0 -117 -121 -246q-123 -131 -288 -219v-4h325l-28 -176h-654z" />
<glyph unicode="&#xb3;" horiz-adv-x="739" d="M53 616l33 152q102 -39 225 -39q76 0 135.5 28.5t59.5 86.5q0 90 -184 90h-72l24 164q295 0 295 121q0 33 -35.5 52t-80.5 19q-135 0 -226 -39l19 166q137 37 254 37q307 0 307 -207q0 -90 -63.5 -145t-155.5 -72v-4q156 -53 155 -172q0 -104 -63.5 -172t-148.5 -92.5 t-185 -24.5q-178 0 -293 51z" />
<glyph unicode="&#xb4;" horiz-adv-x="569" d="M270 1198l166 299h273l-263 -299h-176z" />
<glyph unicode="&#xb5;" horiz-adv-x="1251" d="M-49 -430l309 1485h270l-102 -498q-31 -154 -31 -221q0 -66 42 -107t108 -41q221 0 295 336l112 531h275l-195 -903q-23 -113 -26 -152h-269l19 102h-4q-137 -127 -299 -127q-84 0 -131 70l-99 -475h-274z" />
<glyph unicode="&#xb6;" horiz-adv-x="1269" d="M180 975q0 172 107 291q145 164 471 164h600l-350 -1684h-213l315 1520h-217l-315 -1520h-213l198 952q-184 0 -283.5 74t-99.5 203z" />
<glyph unicode="&#xb7;" horiz-adv-x="569" d="M164 581.5q0 63.5 47 110.5t110.5 47t110.5 -46t47 -111.5t-47 -111.5t-110.5 -46t-110.5 47t-47 110.5z" />
<glyph unicode="&#xb8;" horiz-adv-x="569" d="M121 -391l35 115q100 -55 204 -56q45 0 86 19.5t41 60.5q0 39 -35.5 57.5t-76.5 18.5q-29 0 -56 -10l64 186h113l-31 -90q84 0 127 -19q96 -33 96 -141q0 -113 -92 -159t-219 -46q-115 1 -256 64z" />
<glyph unicode="&#xb9;" horiz-adv-x="739" d="M188 1249l312 193h209l-201 -864h-225l157 659l-172 -104z" />
<glyph unicode="&#xba;" horiz-adv-x="813" d="M162 1079q0 170 124 272.5t298 102.5q141 0 235 -70.5t94 -207.5q0 -180 -120.5 -285t-303.5 -105q-147 0 -237 74t-90 219zM362 1077q0 -74 35 -121t105 -47q88 0 149.5 82t61.5 172q0 72 -34 120t-101 48q-94 0 -155 -79t-61 -175z" />
<glyph unicode="&#xbb;" horiz-adv-x="1251" d="M109 131l323 420l-143 420h235l178 -420l-307 -420h-286zM563 131l324 420l-144 420h236l178 -420l-307 -420h-287z" />
<glyph unicode="&#xbc;" horiz-adv-x="1708" d="M238 1249l311 193h209l-201 -864h-225l157 659l-172 -104zM311 -45l860 1520h175l-861 -1520h-174zM793 158l22 176l465 530h272l-125 -542h134l-39 -164h-129l-37 -158h-219l37 158h-381zM1004 322h206l80 342h-4z" />
<glyph unicode="&#xbd;" horiz-adv-x="1708" d="M238 1249l311 193h209l-201 -864h-225l157 663l-172 -108zM281 -45l860 1520h174l-860 -1520h-174zM864 0l29 143l293 226q6 6 45 34.5t58.5 45t48 45t42 55t13.5 51.5q0 49 -37 74.5t-101 25.5q-84 0 -215 -53l-6 174q162 55 273 56q135 0 229 -53.5t94 -178.5 q0 -117 -121 -246q-123 -131 -288 -219v-4h325l-28 -176h-654z" />
<glyph unicode="&#xbe;" horiz-adv-x="1708" d="M82 616l33 152q102 -39 225 -39q76 0 135.5 28.5t59.5 86.5q0 90 -185 90h-71l24 164q295 0 295 121q0 33 -36 52t-81 19q-135 0 -225 -39l18 166q137 37 254 37q307 0 308 -207q0 -90 -63.5 -145t-156.5 -72v-4q156 -53 156 -176q0 -102 -63.5 -169t-148.5 -91.5 t-185 -24.5q-178 0 -293 51zM393 -45l860 1520h174l-860 -1520h-174zM854 158l23 176l464 530h273l-125 -542h133l-39 -164h-129l-37 -158h-219l37 158h-381zM1065 322h207l80 342h-4z" />
<glyph unicode="&#xbf;" horiz-adv-x="1024" d="M-12 -27q0 63 17.5 117.5t56 101t71.5 76t92.5 76.5t87.5 72q133 117 142 219h250q-18 -147 -80 -240.5t-193 -193.5q-45 -35 -71.5 -59.5t-50 -68.5t-23.5 -93q0 -82 74.5 -124t164.5 -42q137 0 254 51v-230q-170 -35 -291 -34q-92 0 -177 20.5t-159.5 61.5 t-119.5 116.5t-45 173.5zM449 768l59 287h287l-60 -287h-286z" />
<glyph unicode="&#xc0;" horiz-adv-x="1478" d="M-86 0l866 1430h318l260 -1430h-287l-49 328h-608l-183 -328h-317zM541 553h442l-90 623h-8zM664 1810h272l166 -299h-174z" />
<glyph unicode="&#xc1;" horiz-adv-x="1478" d="M-86 0l866 1430h318l260 -1430h-287l-49 328h-608l-183 -328h-317zM541 553h442l-90 623h-8zM827 1511l166 299h273l-262 -299h-177z" />
<glyph unicode="&#xc2;" horiz-adv-x="1478" d="M-86 0l866 1430h318l260 -1430h-287l-49 328h-608l-183 -328h-317zM541 553h442l-90 623h-8zM643 1511l264 299h236l153 -299h-182l-102 191l-164 -191h-205z" />
<glyph unicode="&#xc3;" horiz-adv-x="1478" d="M-86 0l866 1430h318l260 -1430h-287l-49 328h-608l-183 -328h-317zM541 553h442l-90 623h-8zM631 1548q41 248 237 248q59 0 153.5 -41t119.5 -41q47 0 71.5 22.5t38.5 73.5h105q-35 -244 -242 -243q-51 0 -145.5 41t-130.5 41q-41 0 -70 -31t-33 -70h-104z" />
<glyph unicode="&#xc4;" horiz-adv-x="1478" d="M-86 0l866 1430h318l260 -1430h-287l-49 328h-608l-183 -328h-317zM541 553h442l-90 623h-8zM623 1561l51 237h233l-51 -237h-233zM1049 1561l51 237h233l-51 -237h-233z" />
<glyph unicode="&#xc5;" horiz-adv-x="1478" d="M-86 0l866 1430h318l260 -1430h-287l-49 328h-608l-183 -328h-317zM541 553h442l-90 623h-8zM768 1700q0 86 63.5 150.5t149.5 64.5q88 0 151.5 -63.5t63.5 -151.5q0 -86 -64.5 -149.5t-150.5 -63.5t-149.5 63.5t-63.5 149.5zM879 1700q0 -45 29.5 -74t72.5 -29 q45 0 74.5 29t29.5 74t-29.5 74.5t-74.5 29.5q-43 0 -72.5 -30.5t-29.5 -73.5z" />
<glyph unicode="&#xc6;" horiz-adv-x="1933" d="M-86 0l1030 1430h998l-46 -238h-510l-53 -340h434l-45 -225h-424l-61 -402h459l-49 -225h-721l51 328h-506l-240 -328h-317zM633 553h379l100 647l-4 4z" />
<glyph unicode="&#xc7;" horiz-adv-x="1251" d="M141 653q0 352 223.5 576.5t596.5 224.5q250 0 419 -70l-71 -239q-123 84 -328 84q-238 0 -389.5 -162t-151.5 -414q0 -186 113 -319t295 -133q154 0 301 88l-45 -275q-139 -39 -316 -39l-22 -65q84 0 127 -19q96 -33 96 -141q0 -113 -92 -159t-219 -46q-115 0 -256 64 l35 115q100 -55 205 -56q45 0 85.5 19.5t40.5 60.5q0 39 -35.5 57.5t-76.5 18.5q-29 0 -55 -10l57 168q-262 31 -399.5 213t-137.5 458z" />
<glyph unicode="&#xc8;" d="M63 0l302 1430h841l-43 -226h-559l-74 -352h500l-45 -225h-502l-84 -402h566l-50 -225h-852zM514 1810h272l166 -299h-174z" />
<glyph unicode="&#xc9;" d="M63 0l302 1430h841l-43 -226h-559l-74 -352h500l-45 -225h-502l-84 -402h566l-50 -225h-852zM616 1511l166 299h273l-262 -299h-177z" />
<glyph unicode="&#xca;" d="M63 0l302 1430h841l-43 -226h-559l-74 -352h500l-45 -225h-502l-84 -402h566l-50 -225h-852zM432 1511l264 299h236l153 -299h-182l-102 191l-164 -191h-205z" />
<glyph unicode="&#xcb;" d="M63 0l302 1430h841l-43 -226h-559l-74 -352h500l-45 -225h-502l-84 -402h566l-50 -225h-852zM412 1561l51 237h233l-51 -237h-233zM838 1561l51 237h233l-51 -237h-233z" />
<glyph unicode="&#xcc;" horiz-adv-x="569" d="M35 0l301 1430h299l-301 -1430h-299zM209 1810h272l166 -299h-174z" />
<glyph unicode="&#xcd;" horiz-adv-x="569" d="M35 0l301 1430h299l-301 -1430h-299zM373 1511l166 299h272l-262 -299h-176z" />
<glyph unicode="&#xce;" horiz-adv-x="569" d="M35 0l301 1430h299l-301 -1430h-299zM188 1511l265 299h235l154 -299h-183l-102 191l-164 -191h-205z" />
<glyph unicode="&#xcf;" horiz-adv-x="569" d="M35 0l301 1430h299l-301 -1430h-299zM168 1561l51 237h234l-52 -237h-233zM594 1561l51 237h234l-52 -237h-233z" />
<glyph unicode="&#xd0;" horiz-adv-x="1478" d="M63 0l144 676h-121l39 188h121l119 566h340q164 0 287.5 -27t227 -89.5t159 -180t55.5 -287.5q0 -199 -51.5 -348.5t-140.5 -242.5t-223 -151.5t-282.5 -81t-337.5 -22.5h-336zM399 225h93q305 0 474 145.5t169 444.5q0 195 -116 292t-317 97h-98l-72 -340h328l-39 -188 h-327z" />
<glyph unicode="&#xd1;" horiz-adv-x="1478" d="M51 0l307 1430h363l305 -1086h4l234 1086h270l-309 -1430h-369l-299 1096h-4l-227 -1096h-275zM631 1548q41 248 237 248q59 0 153.5 -41t119.5 -41q47 0 71.5 22.5t38.5 73.5h105q-35 -244 -242 -243q-51 0 -145.5 41t-130.5 41q-41 0 -70 -31t-33 -70h-104z" />
<glyph unicode="&#xd2;" horiz-adv-x="1593" d="M141 569q0 354 226 619q233 266 587 266q289 0 442.5 -158.5t153.5 -447.5q0 -365 -239 -633q-215 -240 -606 -240q-258 0 -411 167t-153 427zM440 553q0 -150 77 -251t224 -101q154 0 275 111.5t178 264t57 302.5q0 152 -78.5 251t-226.5 99q-119 0 -218 -64.5 t-160.5 -166t-94.5 -217t-33 -228.5zM721 1810h272l166 -299h-174z" />
<glyph unicode="&#xd3;" horiz-adv-x="1593" d="M141 569q0 354 226 619q233 266 587 266q289 0 442.5 -158.5t153.5 -447.5q0 -365 -239 -633q-215 -240 -606 -240q-258 0 -411 167t-153 427zM440 553q0 -150 77 -251t224 -101q154 0 275 111.5t178 264t57 302.5q0 152 -78.5 251t-226.5 99q-119 0 -218 -64.5 t-160.5 -166t-94.5 -217t-33 -228.5zM885 1511l166 299h272l-262 -299h-176z" />
<glyph unicode="&#xd4;" horiz-adv-x="1593" d="M141 569q0 354 226 619q233 266 587 266q289 0 442.5 -158.5t153.5 -447.5q0 -365 -239 -633q-215 -240 -606 -240q-258 0 -411 167t-153 427zM440 553q0 -150 77 -251t224 -101q154 0 275 111.5t178 264t57 302.5q0 152 -78.5 251t-226.5 99q-119 0 -218 -64.5 t-160.5 -166t-94.5 -217t-33 -228.5zM700 1511l265 299h235l154 -299h-183l-102 191l-164 -191h-205z" />
<glyph unicode="&#xd5;" horiz-adv-x="1593" d="M141 569q0 354 226 619q233 266 587 266q289 0 442.5 -158.5t153.5 -447.5q0 -365 -239 -633q-215 -240 -606 -240q-258 0 -411 167t-153 427zM440 553q0 -150 77 -251t224 -101q154 0 275 111.5t178 264t57 302.5q0 152 -78.5 251t-226.5 99q-119 0 -218 -64.5 t-160.5 -166t-94.5 -217t-33 -228.5zM688 1548q41 248 238 248q59 0 153.5 -41t118.5 -41q47 0 71.5 22.5t39.5 73.5h104q-35 -244 -242 -243q-51 0 -145 41t-131 41q-41 0 -69.5 -31t-32.5 -70h-105z" />
<glyph unicode="&#xd6;" horiz-adv-x="1593" d="M141 569q0 354 226 619q233 266 587 266q289 0 442.5 -158.5t153.5 -447.5q0 -365 -239 -633q-215 -240 -606 -240q-258 0 -411 167t-153 427zM440 553q0 -150 77 -251t224 -101q154 0 275 111.5t178 264t57 302.5q0 152 -78.5 251t-226.5 99q-119 0 -218 -64.5 t-160.5 -166t-94.5 -217t-33 -228.5zM680 1561l51 237h234l-52 -237h-233zM1106 1561l51 237h234l-52 -237h-233z" />
<glyph unicode="&#xd7;" horiz-adv-x="1228" d="M166 186l332 332l-332 332l147 147l332 -331l332 331l147 -147l-333 -332l333 -332l-147 -147l-332 334l-332 -334z" />
<glyph unicode="&#xd8;" horiz-adv-x="1593" d="M141 569q0 354 226 619q233 266 587 266q176 0 299 -61l156 211l107 -78l-150 -203q184 -156 184 -475q0 -365 -239 -633q-215 -240 -606 -240q-160 0 -281 70l-164 -221l-104 80l159 217q-174 161 -174 448zM440 553q0 -117 45 -201l619 836q-66 41 -158 41 q-119 0 -218 -64.5t-160.5 -166t-94.5 -217t-33 -228.5zM575 250q70 -49 166 -49q154 0 275 111.5t178 264t57 302.5q0 125 -55 215z" />
<glyph unicode="&#xd9;" horiz-adv-x="1478" d="M195 653l163 777h287l-145 -678l-21 -96q-8 -38 -16 -100t-6 -106t13 -94.5t38 -81t74 -52t112 -21.5q61 0 112.5 17.5t87.5 40t66.5 68.5t48 78.5t37 97t26.5 97.5l24 105l155 725h283l-191 -865q-66 -293 -216 -441.5t-435 -148.5q-636 0 -497 678zM664 1810h272 l166 -299h-174z" />
<glyph unicode="&#xda;" horiz-adv-x="1478" d="M195 653l163 777h287l-145 -678l-21 -96q-8 -38 -16 -100t-6 -106t13 -94.5t38 -81t74 -52t112 -21.5q61 0 112.5 17.5t87.5 40t66.5 68.5t48 78.5t37 97t26.5 97.5l24 105l155 725h283l-191 -865q-66 -293 -216 -441.5t-435 -148.5q-636 0 -497 678zM827 1511l166 299 h273l-262 -299h-177z" />
<glyph unicode="&#xdb;" horiz-adv-x="1478" d="M195 653l163 777h287l-145 -678l-21 -96q-8 -38 -16 -100t-6 -106t13 -94.5t38 -81t74 -52t112 -21.5q61 0 112.5 17.5t87.5 40t66.5 68.5t48 78.5t37 97t26.5 97.5l24 105l155 725h283l-191 -865q-66 -293 -216 -441.5t-435 -148.5q-636 0 -497 678zM643 1511l264 299 h236l153 -299h-182l-102 191l-164 -191h-205z" />
<glyph unicode="&#xdc;" horiz-adv-x="1478" d="M195 653l163 777h287l-145 -678l-21 -96q-8 -38 -16 -100t-6 -106t13 -94.5t38 -81t74 -52t112 -21.5q61 0 112.5 17.5t87.5 40t66.5 68.5t48 78.5t37 97t26.5 97.5l24 105l155 725h283l-191 -865q-66 -293 -216 -441.5t-435 -148.5q-636 0 -497 678zM623 1561l51 237 h233l-51 -237h-233zM1049 1561l51 237h233l-51 -237h-233z" />
<glyph unicode="&#xdd;" horiz-adv-x="1366" d="M219 1430h303l213 -601l465 601h334l-692 -838l-125 -592h-287l125 592zM772 1511l166 299h272l-262 -299h-176z" />
<glyph unicode="&#xde;" d="M43 0l299 1430h287l-49 -238q88 0 159.5 -6t153.5 -29.5t137 -61.5t92 -109t37 -165q0 -248 -174 -382t-430 -134h-162l-63 -305h-287zM438 530h103q129 0 224 68t95 193q0 176 -239 176h-91z" />
<glyph unicode="&#xdf;" horiz-adv-x="1251" d="M43 0l231 1114q92 446 539 447q176 0 309 -86t133 -248q0 -178 -87 -271.5t-265 -136.5v-4q125 -25 198 -103.5t73 -195.5q0 -244 -157 -386t-403 -142q-78 0 -192 28l43 226q76 -41 129 -41q150 0 221.5 99t71.5 220q0 180 -260 180l41 213q135 0 218 73t83 204 q0 74 -43 116t-125 42q-57 0 -100.5 -19.5t-70 -48.5t-48 -80t-32.5 -92t-26 -109l-207 -999h-274z" />
<glyph unicode="&#xe0;" d="M43 276q0 100 44 173t107.5 111t159 59.5t169 26.5t167.5 5h96q8 29 9 90q0 74 -62.5 106t-148.5 32q-172 0 -346 -82l38 219q180 63 358.5 63t294 -76.5t115.5 -248.5q0 -78 -59 -377t-70 -377h-231l29 162h-4q-76 -94 -154 -140.5t-186 -46.5q-147 0 -236.5 79 t-89.5 222zM305 287q0 -53 41 -82t98 -29q139 0 206 80t106 231h-97q-354 1 -354 -200zM391 1497h273l165 -299h-174z" />
<glyph unicode="&#xe1;" d="M43 276q0 100 44 173t107.5 111t159 59.5t169 26.5t167.5 5h96q8 29 9 90q0 74 -62.5 106t-148.5 32q-172 0 -346 -82l38 219q180 63 358.5 63t294 -76.5t115.5 -248.5q0 -78 -59 -377t-70 -377h-231l29 162h-4q-76 -94 -154 -140.5t-186 -46.5q-147 0 -236.5 79 t-89.5 222zM305 287q0 -53 41 -82t98 -29q139 0 206 80t106 231h-97q-354 1 -354 -200zM555 1198l166 299h272l-262 -299h-176z" />
<glyph unicode="&#xe2;" d="M43 276q0 100 44 173t107.5 111t159 59.5t169 26.5t167.5 5h96q8 29 9 90q0 74 -62.5 106t-148.5 32q-172 0 -346 -82l38 219q180 63 358.5 63t294 -76.5t115.5 -248.5q0 -78 -59 -377t-70 -377h-231l29 162h-4q-76 -94 -154 -140.5t-186 -46.5q-147 0 -236.5 79 t-89.5 222zM305 287q0 -53 41 -82t98 -29q139 0 206 80t106 231h-97q-354 1 -354 -200zM371 1198l264 299h235l154 -299h-182l-103 191l-164 -191h-204z" />
<glyph unicode="&#xe3;" d="M43 276q0 100 44 173t107.5 111t159 59.5t169 26.5t167.5 5h96q8 29 9 90q0 74 -62.5 106t-148.5 32q-172 0 -346 -82l38 219q180 63 358.5 63t294 -76.5t115.5 -248.5q0 -78 -59 -377t-70 -377h-231l29 162h-4q-76 -94 -154 -140.5t-186 -46.5q-147 0 -236.5 79 t-89.5 222zM305 287q0 -53 41 -82t98 -29q139 0 206 80t106 231h-97q-354 1 -354 -200zM358 1235q41 248 238 248q59 0 153.5 -41t118.5 -41q47 0 72 22.5t39 73.5h104q-35 -244 -241 -244q-51 0 -145.5 41t-131.5 41q-41 0 -69.5 -30.5t-32.5 -69.5h-105z" />
<glyph unicode="&#xe4;" d="M43 276q0 100 44 173t107.5 111t159 59.5t169 26.5t167.5 5h96q8 29 9 90q0 74 -62.5 106t-148.5 32q-172 0 -346 -82l38 219q180 63 358.5 63t294 -76.5t115.5 -248.5q0 -78 -59 -377t-70 -377h-231l29 162h-4q-76 -94 -154 -140.5t-186 -46.5q-147 0 -236.5 79 t-89.5 222zM305 287q0 -53 41 -82t98 -29q139 0 206 80t106 231h-97q-354 1 -354 -200zM350 1247l51 238h234l-51 -238h-234zM776 1247l51 238h234l-51 -238h-234z" />
<glyph unicode="&#xe5;" d="M43 276q0 100 44 173t107.5 111t159 59.5t169 26.5t167.5 5h96q8 29 9 90q0 74 -62.5 106t-148.5 32q-172 0 -346 -82l38 219q180 63 358.5 63t294 -76.5t115.5 -248.5q0 -78 -59 -377t-70 -377h-231l29 162h-4q-76 -94 -154 -140.5t-186 -46.5q-147 0 -236.5 79 t-89.5 222zM305 287q0 -53 41 -82t98 -29q139 0 206 80t106 231h-97q-354 1 -354 -200zM565 1407q0 86 63.5 150.5t149.5 64.5q88 0 151.5 -63.5t63.5 -151.5q0 -86 -64.5 -149.5t-150.5 -63.5t-149.5 63.5t-63.5 149.5zM676 1407q0 -45 29.5 -73.5t72.5 -28.5q45 0 75 28.5 t30 73.5t-30 74.5t-75 29.5q-43 0 -72.5 -30.5t-29.5 -73.5z" />
<glyph unicode="&#xe6;" horiz-adv-x="1820" d="M43 285q0 367 627 366h141q6 29 6 62q0 166 -221 166q-174 0 -344 -82l39 223q184 59 354 59q63 0 113.5 -6t102.5 -25.5t88 -59.5t48 -99h4q106 190 359 190q197 0 308.5 -102.5t111.5 -296.5q0 -115 -29 -238h-696q-6 -266 258 -266q131 0 297 70l-41 -217 q-156 -53 -334 -54q-133 0 -225 50.5t-158 169.5q-111 -219 -455 -220q-168 0 -261 78t-93 232zM305 303q0 -63 48 -95t122 -32q131 0 202 84t114 227h-107q-49 0 -74.5 -1t-79 -5t-86 -16t-68.5 -30.5t-53.5 -52.5t-17.5 -79zM1081 631h428q8 53 9 84q0 80 -40 128t-116 48 q-104 0 -180 -77t-101 -183z" />
<glyph unicode="&#xe7;" horiz-adv-x="909" d="M84 430q0 281 171 465t452 184q141 0 274 -41l-68 -225q-82 53 -200 53q-156 0 -249 -121.5t-93 -281.5q0 -274 233 -275q113 0 223 54l-30 -217q-90 -43 -222 -48l-22 -67q84 0 127 -19q96 -33 96 -141q0 -113 -92 -159t-219 -46q-115 0 -256 64l35 115q100 -55 205 -56 q45 0 85.5 19.5t40.5 60.5q0 39 -35.5 57.5t-76.5 18.5q-29 0 -55 -10l57 168q-176 20 -278.5 141t-102.5 307z" />
<glyph unicode="&#xe8;" d="M66 436q0 254 174 448.5t426 194.5q201 0 316.5 -102.5t115.5 -298.5q0 -109 -27 -236h-743q0 -141 73.5 -203.5t219.5 -62.5q160 0 323 76l-35 -217q-193 -59 -336 -60q-236 0 -371.5 117t-135.5 344zM365 631h464q6 37 7 71q0 176 -174 177q-119 0 -185.5 -63.5 t-111.5 -184.5zM453 1497h272l166 -299h-174z" />
<glyph unicode="&#xe9;" d="M66 436q0 254 174 448.5t426 194.5q201 0 316.5 -102.5t115.5 -298.5q0 -109 -27 -236h-743q0 -141 73.5 -203.5t219.5 -62.5q160 0 323 76l-35 -217q-193 -59 -336 -60q-236 0 -371.5 117t-135.5 344zM365 631h464q6 37 7 71q0 176 -174 177q-119 0 -185.5 -63.5 t-111.5 -184.5zM555 1198l166 299h272l-262 -299h-176z" />
<glyph unicode="&#xea;" d="M66 436q0 254 174 448.5t426 194.5q201 0 316.5 -102.5t115.5 -298.5q0 -109 -27 -236h-743q0 -141 73.5 -203.5t219.5 -62.5q160 0 323 76l-35 -217q-193 -59 -336 -60q-236 0 -371.5 117t-135.5 344zM365 631h464q6 37 7 71q0 176 -174 177q-119 0 -185.5 -63.5 t-111.5 -184.5zM371 1198l264 299h235l154 -299h-182l-103 191l-164 -191h-204z" />
<glyph unicode="&#xeb;" d="M66 436q0 254 174 448.5t426 194.5q201 0 316.5 -102.5t115.5 -298.5q0 -109 -27 -236h-743q0 -141 73.5 -203.5t219.5 -62.5q160 0 323 76l-35 -217q-193 -59 -336 -60q-236 0 -371.5 117t-135.5 344zM350 1247l51 238h234l-51 -238h-234zM365 631h464q6 37 7 71 q0 176 -174 177q-119 0 -185.5 -63.5t-111.5 -184.5zM776 1247l51 238h234l-51 -238h-234z" />
<glyph unicode="&#xec;" horiz-adv-x="569" d="M43 0l225 1055h275l-226 -1055h-274zM106 1497h273l166 -299h-174z" />
<glyph unicode="&#xed;" horiz-adv-x="569" d="M43 0l225 1055h275l-226 -1055h-274zM270 1198l166 299h273l-263 -299h-176z" />
<glyph unicode="&#xee;" horiz-adv-x="569" d="M43 0l225 1055h275l-226 -1055h-274zM86 1198l264 299h236l153 -299h-182l-102 191l-164 -191h-205z" />
<glyph unicode="&#xef;" horiz-adv-x="569" d="M43 0l225 1055h275l-226 -1055h-274zM66 1247l51 238h233l-51 -238h-233zM492 1247l51 238h233l-51 -238h-233z" />
<glyph unicode="&#xf0;" horiz-adv-x="1251" d="M84 457q0 260 171 429t409 169q131 0 217 -56h4q-82 147 -168 240l-213 -96l-111 123l197 88q-55 43 -135 84l194 123q98 -55 162 -107l238 107l108 -121l-221 -101q256 -268 256 -682q0 -322 -177 -502t-452 -180q-223 0 -351 128.5t-128 353.5zM371 436 q0 -113 52 -181.5t163 -66.5q147 0 233 137.5t86 288.5q0 98 -48 163t-161 65q-152 0 -238.5 -124t-86.5 -282z" />
<glyph unicode="&#xf1;" horiz-adv-x="1251" d="M43 0l195 903q23 113 26 152h268l-18 -103h4q137 127 299 127q156 0 250 -91t94 -247q0 -70 -35 -229l-110 -512h-275l103 498q31 154 30 221q0 66 -41.5 106.5t-107.5 40.5q-221 0 -295 -336l-113 -530h-274zM416 1235q41 248 237 248q59 0 153.5 -41t119.5 -41 q47 0 71.5 22.5t38.5 73.5h105q-35 -244 -242 -244q-51 0 -145.5 41t-130.5 41q-41 0 -70 -30.5t-33 -69.5h-104z" />
<glyph unicode="&#xf2;" horiz-adv-x="1251" d="M84 457q0 264 179 443t446 179q217 0 350 -124t133 -339q0 -281 -175 -461t-454 -180q-223 0 -351 129.5t-128 352.5zM371 436q0 -248 215 -248q100 0 176 71t109.5 165t33.5 190q0 252 -209 252q-102 0 -179 -69.5t-111.5 -165t-34.5 -195.5zM449 1497h272l166 -299 h-174z" />
<glyph unicode="&#xf3;" horiz-adv-x="1251" d="M84 457q0 264 179 443t446 179q217 0 350 -124t133 -339q0 -281 -175 -461t-454 -180q-223 0 -351 129.5t-128 352.5zM371 436q0 -248 215 -248q100 0 176 71t109.5 165t33.5 190q0 252 -209 252q-102 0 -179 -69.5t-111.5 -165t-34.5 -195.5zM612 1198l166 299h273 l-263 -299h-176z" />
<glyph unicode="&#xf4;" horiz-adv-x="1251" d="M84 457q0 264 179 443t446 179q217 0 350 -124t133 -339q0 -281 -175 -461t-454 -180q-223 0 -351 129.5t-128 352.5zM371 436q0 -248 215 -248q100 0 176 71t109.5 165t33.5 190q0 252 -209 252q-102 0 -179 -69.5t-111.5 -165t-34.5 -195.5zM428 1198l264 299h236 l153 -299h-182l-102 191l-164 -191h-205z" />
<glyph unicode="&#xf5;" horiz-adv-x="1251" d="M84 457q0 264 179 443t446 179q217 0 350 -124t133 -339q0 -281 -175 -461t-454 -180q-223 0 -351 129.5t-128 352.5zM371 436q0 -248 215 -248q100 0 176 71t109.5 165t33.5 190q0 252 -209 252q-102 0 -179 -69.5t-111.5 -165t-34.5 -195.5zM416 1235q41 248 237 248 q59 0 153.5 -41t119.5 -41q47 0 71.5 22.5t38.5 73.5h105q-35 -244 -242 -244q-51 0 -145.5 41t-130.5 41q-41 0 -70 -30.5t-33 -69.5h-104z" />
<glyph unicode="&#xf6;" horiz-adv-x="1251" d="M84 457q0 264 179 443t446 179q217 0 350 -124t133 -339q0 -281 -175 -461t-454 -180q-223 0 -351 129.5t-128 352.5zM371 436q0 -248 215 -248q100 0 176 71t109.5 165t33.5 190q0 252 -209 252q-102 0 -179 -69.5t-111.5 -165t-34.5 -195.5zM408 1247l51 238h233 l-51 -238h-233zM834 1247l51 238h233l-51 -238h-233z" />
<glyph unicode="&#xf7;" horiz-adv-x="1228" d="M125 412v213h1040v-213h-1040zM487 110.5q0 63.5 47.5 110.5t111 47t110.5 -46t47 -111.5t-47 -111.5t-110.5 -46t-111 47t-47.5 110.5zM487 925.5q0 63.5 47.5 110.5t111 47t110.5 -46t47 -111.5t-47 -111.5t-110.5 -46t-111 47t-47.5 110.5z" />
<glyph unicode="&#xf8;" horiz-adv-x="1251" d="M84 457q0 264 179 443t446 179q129 0 225 -45l125 168l92 -67l-119 -160q160 -123 160 -359q0 -281 -175 -461t-454 -180q-141 0 -237 52l-140 -187l-92 68l135 180q-145 129 -145 369zM371 436q0 -72 22 -129l402 539q-35 20 -99 20q-102 0 -179 -69.5t-111.5 -165 t-34.5 -195.5zM469 219q47 -31 117 -31q100 0 176 71t109.5 165t33.5 190q0 88 -28 152z" />
<glyph unicode="&#xf9;" horiz-adv-x="1251" d="M111 313q0 70 34 230l111 512h274l-102 -498q-31 -154 -31 -221q0 -66 42 -107t108 -41q221 0 295 336l112 531h275l-195 -903q-23 -113 -26 -152h-269l19 102h-4q-137 -127 -299 -127q-156 0 -250 91t-94 247zM449 1497h272l166 -299h-174z" />
<glyph unicode="&#xfa;" horiz-adv-x="1251" d="M111 313q0 70 34 230l111 512h274l-102 -498q-31 -154 -31 -221q0 -66 42 -107t108 -41q221 0 295 336l112 531h275l-195 -903q-23 -113 -26 -152h-269l19 102h-4q-137 -127 -299 -127q-156 0 -250 91t-94 247zM612 1198l166 299h273l-263 -299h-176z" />
<glyph unicode="&#xfb;" horiz-adv-x="1251" d="M111 313q0 70 34 230l111 512h274l-102 -498q-31 -154 -31 -221q0 -66 42 -107t108 -41q221 0 295 336l112 531h275l-195 -903q-23 -113 -26 -152h-269l19 102h-4q-137 -127 -299 -127q-156 0 -250 91t-94 247zM428 1198l264 299h236l153 -299h-182l-102 191l-164 -191 h-205z" />
<glyph unicode="&#xfc;" horiz-adv-x="1251" d="M111 313q0 70 34 230l111 512h274l-102 -498q-31 -154 -31 -221q0 -66 42 -107t108 -41q221 0 295 336l112 531h275l-195 -903q-23 -113 -26 -152h-269l19 102h-4q-137 -127 -299 -127q-156 0 -250 91t-94 247zM408 1247l51 238h233l-51 -238h-233zM834 1247l51 238h233 l-51 -238h-233z" />
<glyph unicode="&#xfd;" d="M-100 -426l61 209q66 -25 121 -25q63 0 116.5 41t123.5 150l-187 1106h281l98 -785h4l420 785h301l-715 -1215q-53 -90 -96 -144t-129 -102.5t-195 -48.5q-100 0 -204 29zM555 1198l166 299h272l-262 -299h-176z" />
<glyph unicode="&#xfe;" horiz-adv-x="1251" d="M-49 -430l411 1966h275l-129 -596h4q31 51 109.5 95t181.5 44q190 0 288.5 -116.5t98.5 -311.5q0 -172 -58.5 -321.5t-187.5 -252t-303 -102.5q-233 0 -291 189h-4l-121 -594h-274zM420 436q0 -111 43 -179.5t137 -68.5q106 0 179 82t98.5 178.5t25.5 192.5 q0 100 -50 162.5t-142 62.5q-129 0 -210 -137t-81 -293z" />
<glyph unicode="&#xff;" d="M-100 -426l61 209q66 -25 121 -25q63 0 116.5 41t123.5 150l-187 1106h281l98 -785h4l420 785h301l-715 -1215q-53 -90 -96 -144t-129 -102.5t-195 -48.5q-100 0 -204 29zM350 1247l51 238h234l-51 -238h-234zM776 1247l51 238h234l-51 -238h-234z" />
<glyph unicode="&#x152;" horiz-adv-x="1933" d="M141 625q0 365 225.5 591t608.5 226q111 0 221 -6q221 -6 252 -6h557l-45 -226h-528l-74 -352h477l-45 -225h-479l-84 -402h538l-47 -225h-534q-176 0 -281 -6q-31 0 -84 -3t-74 -3q-276 0 -440 180.5t-164 456.5zM440 625q0 -184 98.5 -298t276.5 -114q61 0 123 12 l205 979q-66 12 -146 13q-248 0 -402.5 -171t-154.5 -421z" />
<glyph unicode="&#x153;" horiz-adv-x="1933" d="M84 457q0 262 175 442t421 180q317 0 405 -196q82 109 168 152.5t220 43.5q197 0 308 -102.5t111 -296.5q0 -115 -28 -238h-697q-6 -266 258 -266q131 0 297 70l-41 -217q-156 -53 -333 -54q-272 0 -365 197q-63 -100 -180 -148.5t-240 -48.5q-223 0 -351 129.5 t-128 352.5zM371 440q0 -264 202 -264q152 0 236 142.5t84 308.5q0 111 -50 181.5t-143 70.5q-106 0 -185 -75t-111.5 -172.5t-32.5 -191.5zM1194 631h428q8 53 8 84q0 80 -40 128t-115 48q-104 0 -180 -77t-101 -183z" />
<glyph unicode="&#x178;" horiz-adv-x="1366" d="M219 1430h303l213 -601l465 601h334l-692 -838l-125 -592h-287l125 592zM567 1561l51 237h234l-51 -237h-234zM993 1561l51 237h234l-51 -237h-234z" />
<glyph unicode="&#x2c6;" horiz-adv-x="569" d="M86 1198l264 299h236l153 -299h-182l-102 191l-164 -191h-205z" />
<glyph unicode="&#x2dc;" horiz-adv-x="569" d="M74 1235q41 248 237 248q59 0 153.5 -41t119.5 -41q47 0 71.5 22.5t38.5 73.5h105q-35 -244 -242 -244q-51 0 -145.5 41t-130.5 41q-41 0 -70 -30.5t-33 -69.5h-104z" />
<glyph unicode="&#x2013;" horiz-adv-x="1024" d="M-4 457l41 188h1024l-41 -188h-1024z" />
<glyph unicode="&#x2014;" horiz-adv-x="2048" d="M-4 457l41 188h2048l-41 -188h-2048z" />
<glyph unicode="&#x2018;" horiz-adv-x="569" d="M172 918l270 512h248l-209 -512h-309z" />
<glyph unicode="&#x2019;" horiz-adv-x="569" d="M193 918l208 512h310l-273 -512h-245z" />
<glyph unicode="&#x201a;" horiz-adv-x="569" d="M-76 -225l209 512h309l-272 -512h-246z" />
<glyph unicode="&#x201c;" horiz-adv-x="1024" d="M172 918l270 512h248l-209 -512h-309zM627 918l270 512h248l-209 -512h-309z" />
<glyph unicode="&#x201d;" horiz-adv-x="1024" d="M193 918l208 512h310l-271 -512h-247zM647 918l209 512h309l-270 -512h-248z" />
<glyph unicode="&#x201e;" horiz-adv-x="1024" d="M-76 -225l209 512h309l-272 -512h-246zM379 -225l209 512h309l-272 -512h-246z" />
<glyph unicode="&#x2022;" horiz-adv-x="1024" d="M205 714.5q0 147.5 104.5 252t252 104.5t253 -104.5t105.5 -252t-105.5 -253t-253 -105.5t-252 105.5t-104.5 253z" />
<glyph unicode="&#x2026;" horiz-adv-x="2048" d="M106 0l60 287h287l-60 -287h-287zM788 0l60 287h287l-60 -287h-287zM1470 0l60 287h287l-60 -287h-287z" />
<glyph unicode="&#x2039;" horiz-adv-x="796" d="M94 551l307 420h287l-323 -420l143 -420h-236z" />
<glyph unicode="&#x203a;" horiz-adv-x="796" d="M109 131l323 420l-143 420h235l178 -420l-307 -420h-286z" />
<glyph unicode="&#x20ac;" d="M-8 510l57 125h154q14 94 33 160h-185l58 125h174q106 240 323 387t475 147q186 0 328 -55l-98 -213q-90 49 -232 49q-156 0 -285.5 -86t-205.5 -229h606l-57 -125h-609q-23 -70 -32 -160h571l-55 -125h-510q16 -145 111.5 -227t244.5 -82q141 0 252 45l-35 -230 q-125 -41 -305 -41q-260 0 -416.5 138.5t-158.5 396.5h-203z" />
<glyph unicode="&#x2122;" horiz-adv-x="2048" d="M147 1266v164h693v-164h-240v-688h-213v688h-240zM1001 578v852h297l203 -533l201 533h297v-852h-201v602h-4l-217 -602h-154l-217 602h-4v-602h-201z" />
<glyph unicode="&#xe000;" horiz-adv-x="1055" d="M0 1055h1055v-1055h-1055v1055z" />
<glyph unicode="&#xfb01;" horiz-adv-x="1366" d="M109 854l43 201h213q18 90 38.5 156.5t56.5 136t84 113.5t120.5 72t164.5 28q86 0 170 -27l-63 -205q-37 18 -84 19q-51 0 -89 -26t-60.5 -73t-35 -84t-24.5 -92q-2 -12 -4 -18h246l-43 -201h-246l-180 -854h-275l181 854h-213zM840 0l225 1055h274l-225 -1055h-274z M1108 1247l57 262h275l-58 -262h-274z" />
<glyph unicode="&#xfb02;" horiz-adv-x="1366" d="M109 854l43 201h213q18 90 38.5 156.5t56.5 136t84 113.5t120.5 72t164.5 28q86 0 170 -27l-63 -205q-37 18 -84 19q-51 0 -89 -26t-60.5 -73t-35 -84t-24.5 -92q-2 -12 -4 -18h246l-43 -201h-246l-180 -854h-275l181 854h-213zM840 0l325 1536h275l-326 -1536h-274z" />
<glyph unicode="&#xfb03;" horiz-adv-x="2162" d="M1636 0l225 1055h275l-226 -1055h-274zM1904 1247l58 262h274l-57 -262h-275zM906 854l43 201h213q18 90 38.5 156.5t56.5 136t84 113.5t120.5 72t164.5 28q86 0 170 -27l-63 -205q-37 18 -84 19q-51 0 -89 -26t-60.5 -73t-35 -84t-24.5 -92q-2 -12 -4 -18h246l-43 -201 h-246l-180 -854h-275l181 854h-213zM109 854l43 201h213q18 90 38.5 156.5t56.5 136t84 113.5t120.5 72t164.5 28q86 0 170 -27l-63 -205q-37 18 -84 19q-51 0 -89 -26t-60.5 -73t-35 -84t-24.5 -92q-2 -12 -4 -18h246l-43 -201h-246l-180 -854h-275l181 854h-213z" />
<glyph unicode="&#xfb04;" horiz-adv-x="2162" d="M1636 0l326 1536h274l-326 -1536h-274zM906 854l43 201h213q18 90 38.5 156.5t56.5 136t84 113.5t120.5 72t164.5 28q86 0 170 -27l-63 -205q-37 18 -84 19q-51 0 -89 -26t-60.5 -73t-35 -84t-24.5 -92q-2 -12 -4 -18h246l-43 -201h-246l-180 -854h-275l181 854h-213z M109 854l43 201h213q18 90 38.5 156.5t56.5 136t84 113.5t120.5 72t164.5 28q86 0 170 -27l-63 -205q-37 18 -84 19q-51 0 -89 -26t-60.5 -73t-35 -84t-24.5 -92q-2 -12 -4 -18h246l-43 -201h-246l-180 -854h-275l181 854h-213z" />
</font>
</defs>
</svg>
