<?xml version="1.0" standalone="no"?>
<!DOCTYPE svg PUBLIC "-//W3C//DTD SVG 1.1//EN" "http://www.w3.org/Graphics/SVG/1.1/DTD/svg11.dtd" >
<svg xmlns="http://www.w3.org/2000/svg">
<metadata>
This is a custom SVG webfont generated by Font Squirrel.
Copyright   : Copyright  1988 1990 1994 2002 Adobe Systems Incorporated  All Rights Reserved  1981 2002 Heidelberger Druckmaschinen AG All rights reserved
Designer    : Adrian Frutiger
Foundry URL : httpwwwadobecomtype
</metadata>
<defs>
<font id="FrutigerLTStd45Light" horiz-adv-x="1138" >
<font-face units-per-em="2048" ascent="1536" descent="-512" />
<missing-glyph horiz-adv-x="569" />
<glyph unicode=" "  horiz-adv-x="569" />
<glyph unicode="&#x09;" horiz-adv-x="569" />
<glyph unicode="&#xa0;" horiz-adv-x="569" />
<glyph unicode="!" horiz-adv-x="796" d="M315 0v172h166v-172h-166zM315 1430h166l-24 -1084h-117z" />
<glyph unicode="&#x22;" d="M367 983v447h129v-447h-129zM643 983v447h129v-447h-129z" />
<glyph unicode="#" d="M70 449v110h227l45 311h-219v111h233l64 449h125l-64 -449h267l63 449h125l-64 -449h197v-111h-211l-43 -311h197v-110h-213l-64 -449h-125l64 449h-266l-64 -449h-125l64 449h-213zM424 559h266l43 311h-266z" />
<glyph unicode="$" d="M174 1081q0 145 98.5 242.5t253.5 122.5v133h105v-125q154 0 276 -47l-22 -129q-88 49 -254 53v-543q78 -41 127 -73.5t104.5 -82.5t82 -112.5t26.5 -140.5q0 -164 -96.5 -261.5t-243.5 -129.5v-170h-105v159q-8 -2 -24 -2q-182 0 -324 62l15 145q133 -84 315 -84 q10 0 18 2v588q-82 45 -130 76t-107.5 80t-87 108t-27.5 129zM315 1085q0 -74 54.5 -128t156.5 -111v475q-211 -43 -211 -236zM631 117q199 55 198 274q0 70 -51 125t-147 113v-512z" />
<glyph unicode="%" horiz-adv-x="2048" d="M215 1061q0 174 80 278.5t243.5 104.5t243.5 -104.5t80 -278.5t-80 -278.5t-243.5 -104.5t-243.5 104.5t-80 278.5zM344 1061q0 -113 45 -193t149.5 -80t149.5 80t45 193t-45 192.5t-149.5 79.5t-149.5 -79.5t-45 -192.5zM541 -45l845 1520h119l-846 -1520h-118z M1186 369q0 174 80 278.5t243.5 104.5t243.5 -104.5t80 -278.5t-80 -278.5t-243.5 -104.5t-243.5 104.5t-80 278.5zM1315 368.5q0 -112.5 45 -192.5t149.5 -80t149.5 80t45 192.5t-45 192.5t-149.5 80t-149.5 -80t-45 -192.5z" />
<glyph unicode="&#x26;" horiz-adv-x="1366" d="M102 375q0 285 338 416l-91 108q-30 37 -62.5 107.5t-32.5 136.5q0 145 115.5 228t269.5 83q139 0 237.5 -77t98.5 -218q0 -47 -11.5 -88t-24.5 -70.5t-47 -61.5l-52 -49q-18 -17 -66.5 -45t-68 -37t-74.5 -38l377 -420q123 176 122 434h123q0 -301 -159 -516l243 -264 h-180l-151 160q-168 -188 -435 -189q-197 0 -333 102.5t-136 297.5zM244 381q0 -139 97 -217t234 -78q96 0 193.5 45t159.5 121l-416 459q-113 -43 -190.5 -131t-77.5 -199zM395 1135q0 -53 28 -109.5t54.5 -89.5t79.5 -92l79 39q22 10 70 40.5t68.5 55.5t40 66.5t19.5 91.5 q0 98 -55.5 152t-147.5 54q-98 0 -167 -55t-69 -153z" />
<glyph unicode="'" horiz-adv-x="569" d="M221 983v447h129v-447h-129z" />
<glyph unicode="(" horiz-adv-x="569" d="M86 630.5q0 231.5 90 441.5t260 476h86l-152.5 -302t-102.5 -283.5t-52 -332t52 -331.5t102.5 -283.5t152.5 -302.5h-86q-170 266 -260 476t-90 441.5z" />
<glyph unicode=")" horiz-adv-x="569" d="M47 -287q102 197 152.5 302.5t102.5 283.5t52 331.5t-52 332t-102 284t-153 301.5h86q170 -266 260 -476t90 -441.5t-90 -441t-260 -476.5h-86z" />
<glyph unicode="*" d="M188 1112l35 119l301 -115l-14 314h119l-15 -314l297 115l39 -119l-301 -86l199 -244l-103 -77l-176 268l-172 -268l-100 77l192 244z" />
<glyph unicode="+" horiz-adv-x="1228" d="M94 449v141h449v448h141v-448h449v-141h-449v-449h-141v449h-449z" />
<glyph unicode="," horiz-adv-x="569" d="M111 -274l118 446h172l-161 -446h-129z" />
<glyph unicode="-" horiz-adv-x="681" d="M84 481v142h514v-142h-514z" />
<glyph unicode="." horiz-adv-x="569" d="M201 0v172h166v-172h-166z" />
<glyph unicode="/" horiz-adv-x="569" d="M-63 -25l555 1479h141l-555 -1479h-141z" />
<glyph unicode="0" d="M100 715q0 109 11.5 205t44 195t84 169t135.5 115t194.5 45t194.5 -45t135 -115t84 -169t44 -195.5t11 -204.5q0 -102 -9 -191.5t-38.5 -193t-79 -176t-137.5 -120.5t-204.5 -48t-205 48t-137.5 120.5t-78.5 176t-39 193t-9.5 191.5zM242 715q0 -606 327.5 -606 t327.5 606t-327.5 606t-327.5 -606z" />
<glyph unicode="1" d="M252 1159l323 271h127v-1430h-141v1270l-231 -203z" />
<glyph unicode="2" d="M102 0v123l328 362q160 176 252 317.5t92 260.5q0 113 -72.5 185.5t-179.5 72.5q-168 0 -344 -102l-24 129q197 96 360 96q184 0 299 -95.5t115 -279.5q0 -143 -106.5 -305t-286.5 -358l-259 -283h685v-123h-859z" />
<glyph unicode="3" d="M102 43l17 135q147 -70 344 -69q147 0 256.5 75.5t109.5 225.5q0 270 -391 270h-131v123h37q72 0 127 4t127 20.5t119 46t79.5 85t32.5 131.5q0 111 -99 171t-228 60q-158 0 -320 -76l-12 133q176 66 346 66q195 0 325 -88t130 -266q0 -127 -82 -218.5t-215 -123.5v-5 q139 -6 218 -102t79 -244q0 -190 -146.5 -300.5t-369.5 -110.5q-199 0 -353 57z" />
<glyph unicode="4" d="M47 330v139l643 961h180v-977h211v-123h-211v-330h-141v330h-682zM176 453h553v835h-4z" />
<glyph unicode="5" d="M176 37v145q135 -74 305 -73q154 0 266.5 82.5t112.5 240.5q0 166 -88 245t-270 79q-156 0 -309 -45l14 719h731v-123h-592l-10 -459q88 31 217 31q209 0 328.5 -111t119.5 -307q0 -229 -142 -352t-378 -123q-172 0 -305 51z" />
<glyph unicode="6" d="M113 664q0 170 33.5 306t106.5 244.5t201 169t304 60.5q94 0 229 -33l-12 -135q-100 45 -236 45q-133 2 -231 -48t-151.5 -138t-78 -189.5t-24.5 -218.5h4q53 88 142 132t194 44q78 0 150.5 -21.5t141 -68.5t110.5 -138t42 -218q0 -213 -125 -342t-342 -129 q-458 0 -458 678zM268 463q0 -145 79 -249.5t228 -104.5q152 0 237 94t85 243q0 158 -78 246t-225 88q-152 0 -239 -87t-87 -230z" />
<glyph unicode="7" d="M119 1307v123h872v-123l-553 -1307h-155l569 1307h-733z" />
<glyph unicode="8" d="M94 367q0 152 85 235.5t245 140.5q-285 135 -285 367q0 113 74 191.5t167 110.5t189 32q182 0 305 -84t123 -250q0 -207 -292 -367q170 -61 254.5 -141t84.5 -235q0 -100 -40.5 -177t-110.5 -120t-152 -63.5t-172 -20.5q-119 0 -224 38.5t-178 128t-73 214.5zM236 367 q0 -115 101 -186.5t232 -71.5q141 0 237.5 66.5t96.5 203.5q0 43 -17.5 81t-39 63.5t-62.5 53t-68.5 42t-77.5 38t-69 33.5q-178 -72 -233 -115q-100 -79 -100 -208zM281 1098q0 -57 25.5 -105.5t78.5 -88.5t87 -59.5t97 -49.5q57 29 100.5 54t90.5 64t71.5 85t24.5 100 q0 106 -88 164.5t-199 58.5q-121 0 -204.5 -58.5t-83.5 -164.5z" />
<glyph unicode="9" d="M100 973q0 213 125 342t342 129q459 0 459 -678q0 -170 -34 -306t-106.5 -245t-200.5 -169t-304 -60q-94 0 -229 32l12 136q100 -45 235 -45q133 -2 231.5 48t152 138t78 189.5t24.5 217.5h-4q-53 -88 -142.5 -132t-193.5 -44q-78 0 -150.5 21.5t-141.5 69t-111 138.5 t-42 218zM242 983q0 -158 77.5 -246t225.5 -88q152 0 238.5 87t86.5 231q0 145 -78.5 249.5t-228.5 104.5q-152 0 -236.5 -94t-84.5 -244z" />
<glyph unicode=":" horiz-adv-x="569" d="M201 0v172h166v-172h-166zM201 872v172h166v-172h-166z" />
<glyph unicode=";" horiz-adv-x="569" d="M111 -274l118 446h172l-161 -446h-129zM201 872v172h166v-172h-166z" />
<glyph unicode="&#x3c;" horiz-adv-x="1228" d="M94 455v127l1039 471v-135l-881 -400l881 -399v-135z" />
<glyph unicode="=" horiz-adv-x="1228" d="M94 242v141h1039v-141h-1039zM94 653v142h1039v-142h-1039z" />
<glyph unicode="&#x3e;" horiz-adv-x="1228" d="M96 -16v135l883 399l-883 400v135l1039 -471v-127z" />
<glyph unicode="?" horiz-adv-x="1024" d="M176 1403q172 51 299 51q170 0 281.5 -93t111.5 -274q0 -80 -25.5 -147.5t-64.5 -113.5l-85 -97l-85 -97q-39 -46 -64.5 -112.5t-25.5 -142.5v-31h-129v27q0 102 35 184t85 136l99 108q49 53 84 124.5t35 161.5q0 111 -72.5 177.5t-185.5 66.5q-111 0 -287 -57zM373 0 v172h166v-172h-166z" />
<glyph unicode="@" horiz-adv-x="1638" d="M82 715q0 141 47 272t137 236.5t233.5 168t321.5 62.5q184 0 347 -68.5t271.5 -213t108.5 -336.5q0 -125 -48 -234.5t-119.5 -178.5t-149.5 -109t-146 -40q-137 0 -161 125h-4q-33 -39 -58.5 -60.5t-77 -43t-116.5 -21.5q-119 0 -198 89.5t-79 218.5q0 211 134 383 t339 172q158 0 226 -158l43 123h129l-175 -557q-20 -57 -20 -101q0 -47 45 -47q117 0 209 131t92 308q0 227 -173 361t-419 134q-258 0 -431 -175t-173 -439q0 -268 172 -443.5t432 -175.5q170 0 311.5 61.5t229.5 166.5h125q-96 -164 -271.5 -257.5t-394.5 -93.5 q-236 0 -407.5 110t-251.5 275t-80 355zM545 594q2 -92 42 -144.5t105 -52.5q94 0 174 74t121 172t41 186q0 98 -49 141.5t-115 43.5q-109 0 -214 -124t-105 -296z" />
<glyph unicode="A" horiz-adv-x="1366" d="M27 0l585 1430h160l567 -1430h-147l-154 383h-721l-153 -383h-137zM371 506h620l-309 788z" />
<glyph unicode="B" d="M164 0v1430h340q199 0 325.5 -81t126.5 -272q0 -274 -260 -325v-4q139 -25 221 -114t82 -226q0 -217 -151.5 -312.5t-398.5 -95.5h-285zM305 123h148q406 0 405 278q0 90 -35 149.5t-102.5 86.5t-133 36t-157.5 9h-125v-559zM309 805h158q348 0 348 266q0 236 -311 236 h-195v-502z" />
<glyph unicode="C" horiz-adv-x="1366" d="M117 715q0 330 196.5 534.5t524.5 204.5q227 0 327 -53l-8 -131q-117 61 -319 61q-272 0 -426 -172t-154 -444q0 -279 151.5 -448t428.5 -169q217 0 319 62l8 -123q-102 -61 -327 -62q-334 0 -527.5 202t-193.5 538z" />
<glyph unicode="D" horiz-adv-x="1366" d="M164 0v1430h354q367 0 541 -190.5t174 -522.5q0 -188 -60.5 -329.5t-172 -224.5t-258 -123t-328.5 -40h-250zM305 123h117q670 0 670 602q0 307 -159 444.5t-421 137.5h-207v-1184z" />
<glyph unicode="E" horiz-adv-x="1024" d="M176 0v1430h701v-123h-560v-510h531v-123h-531v-551h584v-123h-725z" />
<glyph unicode="F" horiz-adv-x="909" d="M158 0v1430h680v-123h-539v-510h514v-123h-514v-674h-141z" />
<glyph unicode="G" horiz-adv-x="1478" d="M131 715q0 330 196.5 534.5t524.5 204.5q250 0 383 -68l-16 -131q-137 76 -367 76q-272 0 -426 -172t-154 -444q0 -279 151.5 -448t428.5 -169q219 0 303 52v501h-332v123h473v-711q-201 -88 -444 -88q-334 0 -527.5 202t-193.5 538z" />
<glyph unicode="H" horiz-adv-x="1366" d="M180 0v1430h142v-633h722v633h142v-1430h-142v674h-722v-674h-142z" />
<glyph unicode="I" horiz-adv-x="454" d="M158 0v1430h141v-1430h-141z" />
<glyph unicode="J" horiz-adv-x="681" d="M29 0v125q53 -27 133 -27q111 0 160 74t49 193v1065h141v-1061q0 -176 -83 -285t-253 -109q-81 0 -147 25z" />
<glyph unicode="K" horiz-adv-x="1251" d="M195 0v1430h141v-642l643 642h184l-692 -674l752 -756h-195l-692 715v-715h-141z" />
<glyph unicode="L" horiz-adv-x="909" d="M164 0v1430h141v-1307h574v-123h-715z" />
<glyph unicode="M" horiz-adv-x="1820" d="M176 0v1430h219l523 -1258l524 1258h203v-1430h-142v1288h-4l-520 -1288h-121l-536 1288h-5v-1288h-141z" />
<glyph unicode="N" horiz-adv-x="1366" d="M158 0v1430h178l727 -1258h4v1258h141v-1430h-190l-715 1233h-4v-1233h-141z" />
<glyph unicode="O" horiz-adv-x="1478" d="M111 715q0 8 -1 15q0 301 160 510q164 214 469 214t469 -214q160 -209 160 -510v-15q-4 -338 -166 -539t-463 -201t-462.5 201t-165.5 539zM252 715q0 -250 126 -433.5t361.5 -183.5t361.5 183.5t126 433.5t-126 433t-361.5 183t-361.5 -183t-126 -433z" />
<glyph unicode="P" horiz-adv-x="1024" d="M176 0v1430h352q207 0 325 -103.5t118 -302.5q0 -193 -128 -299.5t-329 -106.5h-197v-618h-141zM317 741h99q74 0 126 4.5t110.5 21.5t94 46t59 82t23.5 129q0 135 -73.5 209t-208.5 74h-230v-566z" />
<glyph unicode="Q" horiz-adv-x="1478" d="M111 715q0 8 -1 15q0 301 160 510q164 214 469 214t469 -214q160 -209 160 -510v-15q-4 -256 -98 -437.5t-273 -252.5l301 -291h-188l-254 252q-20 -4 -57 -9q-18 -2 -60 -2q-301 0 -462.5 201t-165.5 539zM252 715q0 -250 126 -433.5t361.5 -183.5t361.5 183.5 t126 433.5t-126 433t-361.5 183t-361.5 -183t-126 -433z" />
<glyph unicode="R" d="M180 0v1430h369q420 0 420 -371q0 -133 -90.5 -222t-227.5 -108v-4q55 -6 91 -32.5t49.5 -51.5t44.5 -88l243 -553h-155l-207 483q-57 129 -110.5 160t-168.5 31h-116v-674h-142zM322 797h149q90 0 167 22.5t133 84t56 155.5q0 68 -20.5 115t-49 72.5t-80.5 39.5 t-96 17.5t-114 3.5h-145v-510z" />
<glyph unicode="S" horiz-adv-x="1024" d="M119 1081q0 168 129 270.5t323 102.5q156 0 281 -47l-23 -129q-96 53 -260 53q-127 0 -218 -59.5t-91 -186.5q0 -78 67.5 -141t164 -112.5t192.5 -104.5t163.5 -144t67.5 -204q0 -137 -72.5 -231.5t-175 -133.5t-221.5 -39q-182 0 -323 62l14 145q133 -84 316 -84 q141 0 231 74t90 219q0 76 -67.5 141.5t-163.5 116.5l-193 107q-96 55 -163.5 138t-67.5 187z" />
<glyph unicode="T" horiz-adv-x="1024" d="M20 1307v123h986v-123h-422v-1307h-142v1307h-422z" />
<glyph unicode="U" horiz-adv-x="1366" d="M166 500v930h141v-930q0 -180 98.5 -291t278.5 -111t278.5 110.5t98.5 291.5v930h141v-930q0 -150 -50 -258.5t-132 -163.5t-165 -79t-171 -24t-171 24t-165 79t-132 163.5t-50 258.5z" />
<glyph unicode="V" horiz-adv-x="1251" d="M12 1430h150l461 -1289l477 1289h139l-543 -1430h-151z" />
<glyph unicode="W" horiz-adv-x="1933" d="M18 1430h146l352 -1270h4l367 1270h170l360 -1270h4l359 1270h135l-414 -1430h-168l-362 1270h-4l-369 -1270h-170z" />
<glyph unicode="X" horiz-adv-x="1251" d="M14 0l533 752l-479 678h165l402 -578l405 578h158l-481 -678l520 -752h-172l-436 651l-453 -651h-162z" />
<glyph unicode="Y" horiz-adv-x="1251" d="M25 1430h163l437 -699l448 699h154l-531 -824v-606h-141v606z" />
<glyph unicode="Z" horiz-adv-x="1024" d="M43 0v123l745 1184h-727v123h877v-123l-741 -1184h766v-123h-920z" />
<glyph unicode="[" horiz-adv-x="569" d="M141 -287v1835h332v-98h-203v-1638h203v-99h-332z" />
<glyph unicode="\" horiz-adv-x="569" d="M-63 1454h141l555 -1479h-141z" />
<glyph unicode="]" horiz-adv-x="569" d="M96 -188h203v1638h-203v98h332v-1835h-332v99z" />
<glyph unicode="^" horiz-adv-x="1228" d="M102 543l447 887h131l446 -887h-145l-367 745l-366 -745h-146z" />
<glyph unicode="_" horiz-adv-x="1024" d="M0 -154h1024v-102h-1024v102z" />
<glyph unicode="`" horiz-adv-x="454" d="M-8 1466h162l190 -295h-94z" />
<glyph unicode="a" horiz-adv-x="1024" d="M82 270q0 84 27.5 148.5t81 102.5t109.5 63.5t139 36t142.5 13.5t143.5 3h25v53q0 137 -55.5 202.5t-182.5 65.5q-172 0 -307 -86v125q147 72 307 72q193 0 280 -92t87 -297v-461q0 -147 10 -219h-127v168h-4q-41 -90 -135.5 -141.5t-196.5 -51.5q-104 0 -178 32 t-106.5 82t-46 94t-13.5 87zM223 274q0 -96 60.5 -142t156.5 -46q86 0 148.5 29.5t92.5 68.5t46 99.5t19.5 95.5t3.5 84v63h-37q-100 0 -173 -8t-153 -31.5t-122 -77t-42 -135.5z" />
<glyph unicode="b" d="M150 0v1536h129v-668h4q23 61 107.5 131t217.5 70q221 0 325.5 -147.5t104.5 -399.5q0 -242 -111.5 -394.5t-318.5 -152.5q-225 0 -325 191h-4v-166h-129zM279 522q0 -104 27.5 -198.5t100 -166t181.5 -71.5q88 0 151.5 39t96 104.5t47 138t14.5 154.5t-14.5 155 t-47 138.5t-96 104t-151.5 38.5q-111 0 -183.5 -71.5t-99 -165t-26.5 -199.5z" />
<glyph unicode="c" horiz-adv-x="909" d="M84 522q0 242 142.5 394.5t373.5 152.5q129 0 252 -41l-10 -123q-121 53 -224 53q-184 0 -288.5 -120.5t-104.5 -315.5q0 -184 103.5 -310t275.5 -126q109 0 236 47l12 -121q-106 -37 -268 -37q-240 0 -370 157t-130 390z" />
<glyph unicode="d" d="M100 522q0 252 104.5 399.5t325.5 147.5q133 0 218.5 -69.5t107.5 -131.5h4v668h129v-1536h-129v166h-4q-100 -190 -326 -191q-207 0 -318.5 152.5t-111.5 394.5zM242 522q0 -82 14 -154.5t47 -138t96.5 -104.5t151.5 -39q109 0 181.5 71.5t100 166t27.5 199t-27.5 198.5 t-100.5 165.5t-181 71.5q-88 0 -151.5 -38.5t-96.5 -104t-47 -138.5t-14 -155z" />
<glyph unicode="e" horiz-adv-x="1024" d="M84 522q0 242 122 394.5t318 152.5q209 0 312.5 -145.5t103.5 -372.5v-66h-715q0 -174 90.5 -286.5t253.5 -112.5q70 0 158 23.5t135 54.5v-131q-139 -57 -303 -58q-246 0 -360.5 147.5t-114.5 399.5zM225 596h574q0 152 -65.5 257t-201 105t-221.5 -111.5t-86 -250.5z " />
<glyph unicode="f" horiz-adv-x="681" d="M39 934v110h211v76q0 82 3 132.5t17.5 116t42 102t82 63.5t131.5 27q86 0 121 -21l-8 -113q-41 23 -102 23q-29 0 -52.5 -6t-39.5 -21l-27 -26q-12 -12 -20 -38l-11 -40q-4 -14 -6 -47t-2 -46v-48v-43v-91h235v-110h-235v-934h-129v934h-211z" />
<glyph unicode="g" d="M100 522q0 252 104.5 399.5t325.5 147.5q115 0 186.5 -27.5t139.5 -115.5h4v118h129v-958q0 -238 -117.5 -383t-371.5 -145q-135 0 -316 55l11 129q143 -74 307 -74q96 0 164.5 29t105.5 73t58.5 119.5t26.5 144t5 171.5h-4q-94 -205 -317 -205q-96 0 -173 33t-126 84 t-82 121.5t-46.5 140t-13.5 143.5zM242 522q0 -172 73.5 -291.5t227.5 -119.5q111 0 185.5 65.5t103 154.5t28.5 191q0 436 -309 436q-88 0 -151.5 -38.5t-96.5 -104t-47 -138.5t-14 -155z" />
<glyph unicode="h" d="M162 0v1536h129v-668h4q43 90 129 145.5t197 55.5q197 0 276.5 -115.5t79.5 -328.5v-625h-129v623q0 160 -51.5 247.5t-196.5 87.5q-109 0 -181.5 -63.5t-100 -149.5t-27.5 -186v-559h-129z" />
<glyph unicode="i" horiz-adv-x="454" d="M162 0v1044h129v-1044h-129zM162 1323v172h129v-172h-129z" />
<glyph unicode="j" horiz-adv-x="454" d="M-57 -319q37 -12 77 -13q88 0 115 50.5t27 150.5v1175h129v-1191q0 -139 -52.5 -217t-183.5 -78q-61 0 -112 10v113zM162 1323v172h129v-172h-129z" />
<glyph unicode="k" horiz-adv-x="1024" d="M162 0v1536h129v-920l467 428h166l-510 -462l571 -582h-178l-516 537v-537h-129z" />
<glyph unicode="l" horiz-adv-x="454" d="M162 0v1536h129v-1536h-129z" />
<glyph unicode="m" horiz-adv-x="1705" d="M154 1044h125v-176l4 -2q27 47 39 64.5t52 59.5t98 60.5t136 18.5q90 0 172 -50t105 -171h4q37 96 126 158.5t208 62.5q156 0 242.5 -97.5t86.5 -252.5v-719h-129v694q0 264 -221 264q-115 0 -197.5 -98t-82.5 -282v-578h-129v694q0 264 -222 264q-115 0 -197.5 -98 t-82.5 -282v-578h-129v799q0 161 -8 245z" />
<glyph unicode="n" d="M154 1044h125v-186h4q43 92 117.5 151.5t220.5 59.5q184 0 270 -108.5t86 -292.5v-668h-129v635q0 324 -248 323q-84 0 -146.5 -33.5t-96 -92t-50 -122t-16.5 -132.5v-578h-129v799q0 161 -8 245z" />
<glyph unicode="o" d="M82 522.5q0 231.5 124 389t363.5 157.5t363.5 -157.5t124 -389t-124 -389.5t-363.5 -158t-363.5 158t-124 389.5zM223 522.5q0 -188.5 91.5 -312.5t255 -124t254.5 124t91 312.5t-91 312t-254.5 123.5t-255 -123.5t-91.5 -312z" />
<glyph unicode="p" d="M150 -430v1474h129l-9 -190h4q23 41 37.5 61.5t56.5 64.5t102 66.5t138 22.5q221 0 325.5 -147.5t104.5 -399.5q0 -242 -111.5 -394.5t-318.5 -152.5q-231 0 -325 203h-4v-608h-129zM279 522.5q0 -104.5 27.5 -199t100 -166t181.5 -71.5q88 0 151.5 39t96 104.5t47 138 t14.5 154.5t-14.5 155t-47 138.5t-96 104t-151.5 38.5q-109 0 -181.5 -71.5t-100 -165.5t-27.5 -198.5z" />
<glyph unicode="q" d="M100 522q0 252 104.5 399.5t325.5 147.5q35 0 68 -5t59.5 -15.5t49 -21.5t42.5 -28l33 -28q14 -12 28 -30l20 -27q7 -9 16.5 -23t9.5 -17h4v170h129v-1474h-129v608h-4q-94 -203 -326 -203q-207 0 -318.5 152.5t-111.5 394.5zM242 522q0 -82 14 -154.5t47 -138 t96.5 -104.5t151.5 -39q109 0 181.5 71.5t100 166t27.5 199t-27.5 198.5t-100.5 165.5t-181 71.5q-88 0 -151.5 -38.5t-96.5 -104t-47 -138.5t-14 -155z" />
<glyph unicode="r" horiz-adv-x="681" d="M154 1044h129v-200h4q39 98 107.5 161.5t160.5 63.5q45 0 90 -12v-135q-39 12 -94 12q-96 0 -157.5 -68.5t-82 -155.5t-20.5 -194v-516h-129v811q0 157 -8 233z" />
<glyph unicode="s" horiz-adv-x="796" d="M70 25l12 127q131 -66 272 -66q96 0 164 50t68 136q0 68 -51.5 118t-124.5 84l-149 70q-75 36 -126 96t-51 144q0 145 98.5 215t241.5 70q133 0 258 -47l-12 -113q-109 49 -232 49q-225 0 -225 -174q0 -53 53 -94t129 -72.5t151 -71.5t128 -109.5t53 -164.5 q0 -104 -60.5 -173.5t-138 -96.5t-166.5 -27q-169 1 -292 50z" />
<glyph unicode="t" horiz-adv-x="681" d="M41 934v110h205v252l129 45v-297h237v-110h-237v-676q0 -172 139 -172q55 0 119 25l8 -107q-72 -29 -158 -29q-68 0 -112.5 19.5t-69.5 47.5t-38 79t-15 92t-2 111v610h-205z" />
<glyph unicode="u" d="M162 377v667h129v-634q0 -324 248 -324q84 0 146.5 34t96 92t50 121.5t16.5 133.5v577h129v-798q0 -162 8 -246h-125v186h-4q-43 -92 -117.5 -151.5t-220.5 -59.5q-184 0 -270 109t-86 293z" />
<glyph unicode="v" horiz-adv-x="909" d="M18 1044h142l289 -903h4l303 903h135l-367 -1044h-151z" />
<glyph unicode="w" horiz-adv-x="1593" d="M14 1044h142l274 -903h4l291 903h156l276 -903h4l289 903h129l-344 -1044h-156l-284 903h-4l-285 -903h-156z" />
<glyph unicode="x" horiz-adv-x="909" d="M16 0l367 553l-332 491h160l248 -389l252 389h147l-323 -491l358 -553h-160l-274 451l-293 -451h-150z" />
<glyph unicode="y" horiz-adv-x="909" d="M18 1044h142l293 -870h2l301 870h135l-418 -1200q-98 -287 -268 -286q-70 0 -139 16l12 111q49 -16 96 -17q76 0 114 54.5t74 173.5l27 92z" />
<glyph unicode="z" horiz-adv-x="909" d="M66 0v109l628 825h-604v110h754v-110l-629 -823h629v-111h-778z" />
<glyph unicode="{" horiz-adv-x="569" d="M78 582v98q80 0 120 78t40 198v344q0 115 59 181.5t149 66.5h113v-98h-102q-90 0 -90 -190v-338q0 -129 -58.5 -202t-113.5 -87v-4q55 -14 113.5 -87t58.5 -206v-332q0 -193 90 -192h102v-99h-115q-88 0 -147 67.5t-59 182.5v348q0 119 -40 195t-120 76z" />
<glyph unicode="|" horiz-adv-x="454" d="M158 -512v2048h141v-2048h-141z" />
<glyph unicode="}" horiz-adv-x="569" d="M10 -188h103q90 0 90 190v338q0 129 58 201.5t114 87.5v4q-55 14 -113.5 87t-58.5 206v331q0 193 -90 193h-103v98h115q88 0 147.5 -67.5t59.5 -182.5v-348q0 -119 40 -194.5t120 -75.5v-98q-80 0 -120 -78t-40 -199v-344q0 -115 -59.5 -181.5t-149.5 -66.5h-113v99z" />
<glyph unicode="~" horiz-adv-x="1228" d="M141 477q98 186 256 187q82 0 234 -74q152 -76 203 -76q39 0 73.5 24.5t55 51t51.5 74.5l73 -105q-98 -186 -256 -186q-74 0 -233 76q-156 74 -203 73q-39 0 -73.5 -24.5t-55 -51t-51.5 -73.5z" />
<glyph unicode="&#xa1;" horiz-adv-x="796" d="M315 -385l25 1083h117l24 -1083h-166zM315 872v172h166v-172h-166z" />
<glyph unicode="&#xa2;" d="M203 522q0 242 142 394.5t374 152.5q47 0 69 -4l46 139h96l-51 -151q43 -8 92 -25l-10 -123q-49 23 -117 39l-275 -823q74 -35 154 -35q109 0 235 47l13 -121q-106 -37 -269 -37q-98 0 -172 29l-63 -190h-96l75 225q-119 66 -181 195.5t-62 287.5zM344 522 q0 -229 145 -352l263 786q-6 2 -15 2q-184 0 -288.5 -120.5t-104.5 -315.5z" />
<glyph unicode="&#xa3;" d="M137 0v123h211v588h-186v110h186v101q0 522 449 522q147 0 229 -43l-20 -127q-78 47 -209 47q-98 0 -164 -36t-94.5 -101.5t-39 -128t-10.5 -146.5v-88h340v-110h-340v-588h504v-123h-856z" />
<glyph unicode="&#xa4;" d="M55 289l117 112q-111 139 -111 314q0 186 111 309l-117 113l88 92l117 -115q131 109 309.5 109t311.5 -109l110 115l92 -92l-110 -113q104 -123 104 -309q0 -184 -104 -314l110 -112l-92 -88l-110 114q-125 -109 -311.5 -108.5t-309.5 108.5l-117 -114zM203 715 q0 -166 106.5 -278.5t259.5 -106.5q160 0 263.5 113.5t103.5 271.5q0 156 -104.5 270.5t-262.5 114.5q-156 -6 -261 -119.5t-105 -265.5z" />
<glyph unicode="&#xa5;" d="M39 1430h156l374 -691l385 691h146l-398 -709h234v-98h-289l-6 -13v-153h295v-99h-295v-358h-141v358h-295v99h295v153l-6 13h-289v98h233z" />
<glyph unicode="&#xa6;" horiz-adv-x="454" d="M158 358h141v-716h-141v716zM158 666v716h141v-716h-141z" />
<glyph unicode="&#xa7;" d="M182 635q0 123 162 264l18 16l-14 9q-154 90 -153 223q0 104 60 177t141 101.5t169 28.5q158 0 297 -45l-14 -119q-102 53 -244 53q-94 0 -181 -44t-87 -130q0 -74 63.5 -127t153.5 -87.5t180 -74.5t153.5 -109t63.5 -167q0 -59 -25.5 -113.5t-48 -81t-79.5 -83.5 q160 -90 159 -242q0 -92 -45 -160.5t-114.5 -103.5t-134 -50.5t-121.5 -15.5q-180 0 -346 58l14 120q150 -68 332 -67q104 0 189 56t85 159q0 70 -65.5 119t-157.5 81.5t-185.5 71.5t-159 110t-65.5 173zM324 643q0 -106 133 -164l239 -104l43 43q78 78 78 162 q0 55 -26.5 95t-58.5 59.5t-91 47.5l-178 84l-14 -8q-39 -23 -82 -84t-43 -131z" />
<glyph unicode="&#xa8;" horiz-adv-x="454" d="M-25 1237v172h154v-172h-154zM326 1237v172h153v-172h-153z" />
<glyph unicode="&#xa9;" horiz-adv-x="1638" d="M80 715q0 305 217 522t522 217t522.5 -217t217.5 -522t-217.5 -522.5t-522.5 -217.5t-522 217.5t-217 522.5zM221 715q0 -266 172 -447.5t428 -181.5q254 0 425 181.5t171 447.5t-171 447t-425 181q-256 0 -428 -181t-172 -447zM403 715q0 205 118 334t319 129 q145 0 246.5 -81t121.5 -229h-123q-18 90 -82.5 144.5t-160.5 54.5q-141 0 -219 -97.5t-78 -252.5q0 -147 83 -249.5t218 -102.5q96 0 159.5 57t79.5 151h125q-31 -147 -130 -233t-234 -86q-199 0 -321 131t-122 330z" />
<glyph unicode="&#xaa;" horiz-adv-x="665" d="M49 981q0 61 27.5 106.5t66.5 68t102.5 35.5t110.5 15t115 2h16v31q0 25 -4 42t-16 39.5t-44 35t-81 12.5q-111 0 -201 -49v94q115 41 213 41q238 0 238 -233v-277q0 -88 6 -133h-102v98h-4q-23 -53 -81.5 -83.5t-125.5 -30.5q-236 0 -236 186zM154 991q0 -111 141 -110 q55 -2 95 14t58.5 36.5t27.5 56.5t10 52.5t1 44.5v37h-24q-309 0 -309 -131z" />
<glyph unicode="&#xab;" d="M186 551l287 420h121l-272 -420l272 -420h-121zM545 551l286 420h121l-272 -420l272 -420h-121z" />
<glyph unicode="&#xac;" horiz-adv-x="1228" d="M94 653v142h1039v-562h-142v420h-897z" />
<glyph unicode="&#xad;" horiz-adv-x="681" d="M84 481v142h514v-142h-514z" />
<glyph unicode="&#xae;" horiz-adv-x="1638" d="M80 715q0 305 217 522t522 217t522.5 -217t217.5 -522t-217.5 -522.5t-522.5 -217.5t-522 217.5t-217 522.5zM221 715q0 -266 172 -447.5t428 -181.5q254 0 425 181.5t171 447.5t-171 447t-425 181q-256 0 -428 -181t-172 -447zM537 283v866h331q297 0 297 -244 q0 -106 -61.5 -172.5t-161.5 -66.5l246 -383h-150l-241 383h-119v-383h-141zM678 776h168q90 0 134 27.5t44 107.5q0 127 -178 127h-168v-262z" />
<glyph unicode="&#xaf;" horiz-adv-x="454" d="M-23 1257v111h500v-111h-500z" />
<glyph unicode="&#xb0;" horiz-adv-x="819" d="M86 1139q0 133 95 219t228.5 86t228.5 -86t95 -219t-95 -219t-228.5 -86t-228.5 86t-95 219zM190 1139q0 -86 67 -146.5t153 -60.5t152.5 60.5t66.5 146.5q0 94 -61.5 150.5t-158 56.5t-158 -56.5t-61.5 -150.5z" />
<glyph unicode="&#xb1;" horiz-adv-x="1228" d="M94 0v141h1039v-141h-1039zM94 551v141h449v346h141v-346h449v-141h-449v-346h-141v346h-449z" />
<glyph unicode="&#xb2;" horiz-adv-x="739" d="M92 582v84l217 194q215 207 215 340q0 68 -46 107t-113 39q-111 0 -224 -62l-16 102q119 57 240 58q125 0 200.5 -58.5t75.5 -179.5q0 -59 -20.5 -114.5t-65.5 -110.5t-71.5 -84t-86.5 -84l-151 -133h403v-98h-557z" />
<glyph unicode="&#xb3;" horiz-adv-x="739" d="M70 602l10 107q109 -43 246 -43q86 0 150.5 44t64.5 113q2 53 -26 87t-81 46.5t-87 15.5t-87 3h-57v98h57q276 0 277 148q0 125 -205 125q-111 0 -211 -48l-8 107q96 39 243 39q119 0 208 -53.5t89 -161.5q0 -76 -53 -129t-141 -72v-4q94 -4 146 -63.5t52 -149.5 q0 -119 -103 -181.5t-239 -62.5q-143 0 -245 35z" />
<glyph unicode="&#xb4;" horiz-adv-x="454" d="M109 1171l190 295h162l-258 -295h-94z" />
<glyph unicode="&#xb5;" d="M162 -430v1474h129v-634q0 -324 248 -324q84 0 146.5 34t96 92t50 121.5t16.5 133.5v577h129v-798q0 -162 8 -246h-125v186h-4q-43 -92 -117.5 -151.5t-220.5 -59.5q-129 0 -227 60v-465h-129z" />
<glyph unicode="&#xb6;" horiz-adv-x="1228" d="M98 1036q0 195 123 294.5t344 99.5h492v-1651h-129v1540h-275v-1540h-129v876q-184 0 -305 109.5t-121 271.5z" />
<glyph unicode="&#xb7;" horiz-adv-x="569" d="M188 637q0 45 30 71.5t69 26.5q37 0 66.5 -26.5t29.5 -71.5t-29.5 -71.5t-66.5 -24.5q-39 -2 -69 24.5t-30 71.5z" />
<glyph unicode="&#xb8;" horiz-adv-x="454" d="M14 -334l15 76q86 -59 182 -59q106 0 106 75q0 35 -21.5 55.5t-55.5 20.5q-47 0 -86 -8l59 174h55l-39 -111q55 6 68 7q63 0 106 -36t43 -98q0 -141 -225 -141q-86 0 -207 45z" />
<glyph unicode="&#xb9;" horiz-adv-x="739" d="M158 1280l211 164h106v-862h-117v749l-155 -119z" />
<glyph unicode="&#xba;" horiz-adv-x="739" d="M47 1122q0 143 81 238.5t242.5 93.5t241.5 -94t80 -238q0 -137 -81 -231t-240 -96q-162 -2 -243 92t-81 235zM152 1122q0 -106 59 -173.5t159.5 -67.5t159 67.5t58.5 173.5q0 102 -59.5 174t-157.5 72q-100 0 -159.5 -72t-59.5 -174z" />
<glyph unicode="&#xbb;" d="M186 131l273 420l-273 420h121l287 -420l-287 -420h-121zM545 131l272 420l-272 420h121l286 -420l-286 -420h-121z" />
<glyph unicode="&#xbc;" horiz-adv-x="1708" d="M145 1280l211 164h107v-862h-117v749l-156 -119zM266 -45l908 1520h116l-907 -1520h-117zM883 186v101l426 575h139v-577h115v-99h-115v-186h-117v186h-448zM999 285h332v436h-4z" />
<glyph unicode="&#xbd;" horiz-adv-x="1708" d="M121 1280l211 164h106v-862h-116v749l-156 -119zM240 -45l907 1520h117l-908 -1520h-116zM1030 0v84l217 195q215 207 215 339q0 68 -46 107t-113 39q-111 0 -224 -62l-16 103q119 57 240 57q125 0 200.5 -58.5t75.5 -178.5q0 -59 -20.5 -114.5t-65.5 -111t-71.5 -84 t-86.5 -84.5l-151 -133h403v-98h-557z" />
<glyph unicode="&#xbe;" horiz-adv-x="1708" d="M109 602l10 107q106 -43 246 -43q86 0 150.5 44t64.5 113q2 53 -26 87t-81 46.5t-87 15.5t-87 3h-57v98h57q276 0 276 148q0 125 -204 125q-111 0 -211 -48l-8 107q96 39 243 39q119 0 208 -53.5t89 -161.5q0 -76 -53 -129t-141 -72v-4q94 -4 146 -63.5t52 -149.5 q0 -119 -103.5 -181.5t-238.5 -62.5q-143 0 -245 35zM424 -45l907 1520h119l-907 -1520h-119zM922 186v101l426 575h139v-577h115v-99h-115v-186h-117v186h-448zM1038 285h332v436h-4z" />
<glyph unicode="&#xbf;" horiz-adv-x="1024" d="M156 -43q0 80 25.5 147.5t64.5 113.5l85 97l85 98q39 46 64.5 112.5t25.5 142.5v30h129v-26q0 -102 -35 -184t-84 -137l-99 -107q-50 -53 -85 -125t-35 -162q0 -111 72.5 -177.5t185.5 -66.5q111 0 287 58l6 -129q-172 -51 -299 -52q-170 0 -281.5 93.5t-111.5 273.5z M485 872v172h166v-172h-166z" />
<glyph unicode="&#xc0;" horiz-adv-x="1366" d="M27 0l585 1430h160l567 -1430h-147l-154 383h-721l-153 -383h-137zM371 506h620l-309 788zM449 1782h161l191 -295h-94z" />
<glyph unicode="&#xc1;" horiz-adv-x="1366" d="M27 0l585 1430h160l567 -1430h-147l-154 383h-721l-153 -383h-137zM371 506h620l-309 788zM565 1487l191 295h162l-259 -295h-94z" />
<glyph unicode="&#xc2;" horiz-adv-x="1366" d="M27 0l585 1430h160l567 -1430h-147l-154 383h-721l-153 -383h-137zM371 506h620l-309 788zM410 1487l190 295h168l190 -295h-94l-180 209l-180 -209h-94z" />
<glyph unicode="&#xc3;" horiz-adv-x="1366" d="M27 0l585 1430h160l567 -1430h-147l-154 383h-721l-153 -383h-137zM371 506h620l-309 788zM401 1534q16 76 58.5 130t107.5 54q47 0 125 -24q84 -27 90 -27q35 0 63.5 18.5t37.5 51.5h75q-14 -98 -65 -139.5t-105 -41.5q-47 0 -126 27q-74 25 -97 25q-37 0 -56.5 -17.5 t-33.5 -56.5h-74z" />
<glyph unicode="&#xc4;" horiz-adv-x="1366" d="M27 0l585 1430h160l567 -1430h-147l-154 383h-721l-153 -383h-137zM371 506h620l-309 788zM432 1552v172h154v-172h-154zM782 1552v172h154v-172h-154z" />
<glyph unicode="&#xc5;" horiz-adv-x="1366" d="M27 0l585 1430h160l567 -1430h-147l-154 383h-721l-153 -383h-137zM371 506h620l-309 788zM487 1671q0 82 56.5 138.5t140.5 56.5q82 0 139.5 -56.5t57.5 -138.5t-56.5 -138t-140.5 -56t-140.5 55t-56.5 139zM561 1671q0 -51 37 -86t86 -35q53 0 88 35t35 86t-36 86 t-87 35q-49 0 -86 -36t-37 -85z" />
<glyph unicode="&#xc6;" horiz-adv-x="1820" d="M0 0l893 1430h780v-123h-555v-510h527v-123h-527v-551h580v-123h-719v383h-586l-237 -383h-156zM469 506h508v813h-4z" />
<glyph unicode="&#xc7;" horiz-adv-x="1366" d="M117 715q0 330 196.5 534.5t524.5 204.5q227 0 327 -53l-8 -131q-117 61 -319 61q-272 0 -426 -172t-154 -444q0 -279 151.5 -448t428.5 -169q217 0 319 62l8 -123q-102 -61 -327 -62q-20 0 -29 2l-31 -88q55 6 68 7q63 0 106 -36t43 -98q0 -141 -225 -141q-86 0 -207 45 l15 76q86 -59 182 -59q106 0 106 75q0 35 -21.5 55.5t-56.5 20.5q-47 0 -86 -8l52 156q-299 23 -468 221.5t-169 511.5z" />
<glyph unicode="&#xc8;" horiz-adv-x="1024" d="M176 0v1430h701v-123h-560v-510h531v-123h-531v-551h584v-123h-725zM276 1782h162l191 -295h-94z" />
<glyph unicode="&#xc9;" horiz-adv-x="1024" d="M176 0v1430h701v-123h-560v-510h531v-123h-531v-551h584v-123h-725zM393 1487l191 295h161l-258 -295h-94z" />
<glyph unicode="&#xca;" horiz-adv-x="1024" d="M176 0v1430h701v-123h-560v-510h531v-123h-531v-551h584v-123h-725zM238 1487l190 295h168l190 -295h-94l-180 209l-180 -209h-94z" />
<glyph unicode="&#xcb;" horiz-adv-x="1024" d="M176 0v1430h701v-123h-560v-510h531v-123h-531v-551h584v-123h-725zM260 1552v172h154v-172h-154zM610 1552v172h154v-172h-154z" />
<glyph unicode="&#xcc;" horiz-adv-x="454" d="M-8 1782h162l190 -295h-94zM158 0v1430h141v-1430h-141z" />
<glyph unicode="&#xcd;" horiz-adv-x="454" d="M109 1487l190 295h162l-258 -295h-94zM158 0v1430h141v-1430h-141z" />
<glyph unicode="&#xce;" horiz-adv-x="454" d="M-47 1487l190 295h168l191 -295h-94l-181 209l-180 -209h-94zM158 0v1430h141v-1430h-141z" />
<glyph unicode="&#xcf;" horiz-adv-x="454" d="M-25 1552v172h154v-172h-154zM158 0v1430h141v-1430h-141zM326 1552v172h153v-172h-153z" />
<glyph unicode="&#xd0;" horiz-adv-x="1366" d="M23 674v123h141v633h242q827 0 827 -713q0 -188 -60.5 -329.5t-172 -224.5t-258 -123t-328.5 -40h-250v674h-141zM305 123h117q670 0 670 602q0 168 -48.5 283.5t-143.5 180t-215 91.5t-286 27h-94v-510h436v-123h-436v-551z" />
<glyph unicode="&#xd1;" horiz-adv-x="1366" d="M158 0v1430h178l727 -1258h4v1258h141v-1430h-190l-715 1233h-4v-1233h-141zM401 1534q16 76 58.5 130t107.5 54q47 0 125 -24q84 -27 90 -27q35 0 63.5 18.5t37.5 51.5h75q-14 -98 -65 -139.5t-105 -41.5q-47 0 -126 27q-74 25 -97 25q-37 0 -56.5 -17.5t-33.5 -56.5 h-74z" />
<glyph unicode="&#xd2;" horiz-adv-x="1478" d="M111 715q-4 311 159.5 525t468.5 214t469 -214t160 -525q-4 -338 -166 -539t-463 -201t-462.5 201t-165.5 539zM252 715q0 -250 126 -433.5t361.5 -183.5t361.5 183.5t126 433.5t-126 433t-361.5 183t-361.5 -183t-126 -433zM504 1782h162l190 -295h-94z" />
<glyph unicode="&#xd3;" horiz-adv-x="1478" d="M111 715q-4 311 159.5 525t468.5 214t469 -214t160 -525q-4 -338 -166 -539t-463 -201t-462.5 201t-165.5 539zM252 715q0 -250 126 -433.5t361.5 -183.5t361.5 183.5t126 433.5t-126 433t-361.5 183t-361.5 -183t-126 -433zM621 1487l190 295h162l-258 -295h-94z" />
<glyph unicode="&#xd4;" horiz-adv-x="1478" d="M111 715q-4 311 159.5 525t468.5 214t469 -214t160 -525q-4 -338 -166 -539t-463 -201t-462.5 201t-165.5 539zM252 715q0 -250 126 -433.5t361.5 -183.5t361.5 183.5t126 433.5t-126 433t-361.5 183t-361.5 -183t-126 -433zM465 1487l190 295h168l191 -295h-94l-181 209 l-180 -209h-94z" />
<glyph unicode="&#xd5;" horiz-adv-x="1478" d="M111 715q-4 311 159.5 525t468.5 214t469 -214t160 -525q-4 -338 -166 -539t-463 -201t-462.5 201t-165.5 539zM252 715q0 -250 126 -433.5t361.5 -183.5t361.5 183.5t126 433.5t-126 433t-361.5 183t-361.5 -183t-126 -433zM457 1534q16 76 58 130t108 54q47 0 125 -24 q84 -27 90 -27q35 0 63.5 18.5t36.5 51.5h76q-14 -98 -65.5 -139.5t-104.5 -41.5q-47 0 -127 27q-74 25 -96 25q-37 0 -56.5 -17.5t-34.5 -56.5h-73z" />
<glyph unicode="&#xd6;" horiz-adv-x="1478" d="M111 715q-4 311 159.5 525t468.5 214t469 -214t160 -525q-4 -338 -166 -539t-463 -201t-462.5 201t-165.5 539zM252 715q0 -250 126 -433.5t361.5 -183.5t361.5 183.5t126 433.5t-126 433t-361.5 183t-361.5 -183t-126 -433zM487 1552v172h154v-172h-154zM838 1552v172 h153v-172h-153z" />
<glyph unicode="&#xd7;" horiz-adv-x="1228" d="M145 156l371 370l-371 369l101 100l370 -370l367 370l102 -100l-368 -369l368 -370l-102 -103l-367 373l-370 -373z" />
<glyph unicode="&#xd8;" horiz-adv-x="1478" d="M59 23l181 206q-125 184 -129 486q-4 311 159.5 525t468.5 214q262 0 424 -166l176 201l80 -68l-186 -215q139 -197 135 -491q-4 -338 -166 -539t-463 -201q-276 0 -434 170l-166 -190zM252 715q0 -211 88 -369l731 836q-129 150 -332 149q-236 0 -361.5 -183 t-125.5 -433zM401 254q129 -156 338 -156q236 0 362 183.5t126 433.5q0 219 -92 379z" />
<glyph unicode="&#xd9;" horiz-adv-x="1366" d="M166 500v930h141v-930q0 -180 98.5 -291t278.5 -111t278.5 110.5t98.5 291.5v930h141v-930q0 -150 -50 -258.5t-132 -163.5t-165 -79t-171 -24t-171 24t-165 79t-132 163.5t-50 258.5zM449 1782h161l191 -295h-94z" />
<glyph unicode="&#xda;" horiz-adv-x="1366" d="M166 500v930h141v-930q0 -180 98.5 -291t278.5 -111t278.5 110.5t98.5 291.5v930h141v-930q0 -150 -50 -258.5t-132 -163.5t-165 -79t-171 -24t-171 24t-165 79t-132 163.5t-50 258.5zM565 1487l191 295h162l-259 -295h-94z" />
<glyph unicode="&#xdb;" horiz-adv-x="1366" d="M166 500v930h141v-930q0 -180 98.5 -291t278.5 -111t278.5 110.5t98.5 291.5v930h141v-930q0 -150 -50 -258.5t-132 -163.5t-165 -79t-171 -24t-171 24t-165 79t-132 163.5t-50 258.5zM410 1487l190 295h168l190 -295h-94l-180 209l-180 -209h-94z" />
<glyph unicode="&#xdc;" horiz-adv-x="1366" d="M166 500v930h141v-930q0 -180 98.5 -291t278.5 -111t278.5 110.5t98.5 291.5v930h141v-930q0 -150 -50 -258.5t-132 -163.5t-165 -79t-171 -24t-171 24t-165 79t-132 163.5t-50 258.5zM432 1552v172h154v-172h-154zM782 1552v172h154v-172h-154z" />
<glyph unicode="&#xdd;" horiz-adv-x="1251" d="M25 1430h163l437 -699l448 699h154l-531 -824v-606h-141v606zM508 1487l190 295h162l-258 -295h-94z" />
<glyph unicode="&#xde;" horiz-adv-x="1024" d="M176 0v1430h141v-267h211q207 0 325 -103.5t118 -301.5q0 -193 -128 -299.5t-329 -106.5h-197v-352h-141zM317 475h99q74 0 126 4t110.5 21.5t94 46t59 82t23.5 129.5q0 135 -73.5 208.5t-208.5 73.5h-230v-565z" />
<glyph unicode="&#xdf;" d="M162 0v1110q0 207 103.5 329t305.5 122q176 0 281.5 -102.5t105.5 -278.5q0 -139 -72.5 -234.5t-201.5 -122.5v-4q172 -14 262 -113.5t90 -265.5q0 -201 -119.5 -327.5t-324.5 -126.5q-109 0 -174 24l8 121q55 -35 168 -35q143 0 222 94.5t79 247.5q0 170 -100.5 242 t-290.5 72h-21v110h37q131 0 214 86t83 228q0 121 -65.5 197.5t-180.5 76.5q-281 0 -280 -385v-1065h-129z" />
<glyph unicode="&#xe0;" horiz-adv-x="1024" d="M82 270q0 84 27.5 148.5t81 102.5t109.5 63.5t139 36t142.5 13.5t143.5 3h25v53q0 137 -55.5 202.5t-182.5 65.5q-172 0 -307 -86v125q147 72 307 72q193 0 280 -92t87 -297v-461q0 -147 10 -219h-127v168h-4q-41 -90 -135.5 -141.5t-196.5 -51.5q-104 0 -178 32 t-106.5 82t-46 94t-13.5 87zM223 274q0 -96 60.5 -142t156.5 -46q86 0 148.5 29.5t92.5 68.5t46 99.5t19.5 95.5t3.5 84v63h-37q-100 0 -173 -8t-153 -31.5t-122 -77t-42 -135.5zM276 1448h162l191 -295h-94z" />
<glyph unicode="&#xe1;" horiz-adv-x="1024" d="M82 270q0 84 27.5 148.5t81 102.5t109.5 63.5t139 36t142.5 13.5t143.5 3h25v53q0 137 -55.5 202.5t-182.5 65.5q-172 0 -307 -86v125q147 72 307 72q193 0 280 -92t87 -297v-461q0 -147 10 -219h-127v168h-4q-41 -90 -135.5 -141.5t-196.5 -51.5q-104 0 -178 32 t-106.5 82t-46 94t-13.5 87zM223 274q0 -96 60.5 -142t156.5 -46q86 0 148.5 29.5t92.5 68.5t46 99.5t19.5 95.5t3.5 84v63h-37q-100 0 -173 -8t-153 -31.5t-122 -77t-42 -135.5zM393 1153l191 295h161l-258 -295h-94z" />
<glyph unicode="&#xe2;" horiz-adv-x="1024" d="M82 270q0 84 27.5 148.5t81 102.5t109.5 63.5t139 36t142.5 13.5t143.5 3h25v53q0 137 -55.5 202.5t-182.5 65.5q-172 0 -307 -86v125q147 72 307 72q193 0 280 -92t87 -297v-461q0 -147 10 -219h-127v168h-4q-41 -90 -135.5 -141.5t-196.5 -51.5q-104 0 -178 32 t-106.5 82t-46 94t-13.5 87zM223 274q0 -96 60.5 -142t156.5 -46q86 0 148.5 29.5t92.5 68.5t46 99.5t19.5 95.5t3.5 84v63h-37q-100 0 -173 -8t-153 -31.5t-122 -77t-42 -135.5zM238 1153l190 295h168l190 -295h-94l-180 209l-180 -209h-94z" />
<glyph unicode="&#xe3;" horiz-adv-x="1024" d="M82 270q0 84 27.5 148.5t81 102.5t109.5 63.5t139 36t142.5 13.5t143.5 3h25v53q0 137 -55.5 202.5t-182.5 65.5q-172 0 -307 -86v125q147 72 307 72q193 0 280 -92t87 -297v-461q0 -147 10 -219h-127v168h-4q-41 -90 -135.5 -141.5t-196.5 -51.5q-104 0 -178 32 t-106.5 82t-46 94t-13.5 87zM223 274q0 -96 60.5 -142t156.5 -46q86 0 148.5 29.5t92.5 68.5t46 99.5t19.5 95.5t3.5 84v63h-37q-100 0 -173 -8t-153 -31.5t-122 -77t-42 -135.5zM229 1200q16 76 58.5 130t107.5 54q47 0 125 -24q84 -27 90 -27q35 0 63.5 18.5t37.5 51.5h75 q-14 -98 -65 -139t-105 -41q-47 0 -127 26q-74 25 -96 25q-37 0 -56.5 -17.5t-33.5 -56.5h-74z" />
<glyph unicode="&#xe4;" horiz-adv-x="1024" d="M82 270q0 84 27.5 148.5t81 102.5t109.5 63.5t139 36t142.5 13.5t143.5 3h25v53q0 137 -55.5 202.5t-182.5 65.5q-172 0 -307 -86v125q147 72 307 72q193 0 280 -92t87 -297v-461q0 -147 10 -219h-127v168h-4q-41 -90 -135.5 -141.5t-196.5 -51.5q-104 0 -178 32 t-106.5 82t-46 94t-13.5 87zM223 274q0 -96 60.5 -142t156.5 -46q86 0 148.5 29.5t92.5 68.5t46 99.5t19.5 95.5t3.5 84v63h-37q-100 0 -173 -8t-153 -31.5t-122 -77t-42 -135.5zM260 1219v172h154v-172h-154zM610 1219v172h154v-172h-154z" />
<glyph unicode="&#xe5;" horiz-adv-x="1024" d="M82 270q0 84 27.5 148.5t81 102.5t109.5 63.5t139 36t142.5 13.5t143.5 3h25v53q0 137 -55.5 202.5t-182.5 65.5q-172 0 -307 -86v125q147 72 307 72q193 0 280 -92t87 -297v-461q0 -147 10 -219h-127v168h-4q-41 -90 -135.5 -141.5t-196.5 -51.5q-104 0 -178 32 t-106.5 82t-46 94t-13.5 87zM223 274q0 -96 60.5 -142t156.5 -46q86 0 148.5 29.5t92.5 68.5t46 99.5t19.5 95.5t3.5 84v63h-37q-100 0 -173 -8t-153 -31.5t-122 -77t-42 -135.5zM315 1327q0 82 56.5 138.5t140.5 56.5q82 0 139.5 -56.5t57.5 -138.5t-56.5 -138t-140.5 -56 t-140.5 55t-56.5 139zM389 1327q0 -51 37 -86t86 -35q53 0 88 35t35 86t-36 86t-87 35q-49 0 -86 -36t-37 -85z" />
<glyph unicode="&#xe6;" horiz-adv-x="1705" d="M94 254q0 80 26.5 140.5t79 96t104.5 58t128 32t124 12.5t116 3h90v55q0 147 -51.5 227t-184.5 80q-174 0 -309 -86v125q147 72 307 72q123 0 204 -42t130 -146q55 86 146.5 137t191.5 51q209 0 312.5 -145.5t103.5 -372.5v-66h-709v-47q0 -160 83 -256t255 -96 q70 0 158 23.5t135 54.5v-131q-139 -57 -303 -58q-154 0 -255.5 57.5t-141.5 153.5q-145 -211 -396 -211q-160 0 -252 72t-92 207zM236 254q0 -78 65.5 -123t151.5 -45q162 0 235.5 94t73.5 250v55h-45q-57 0 -93 -1t-101.5 -7t-108.5 -21.5t-88 -39t-67.5 -65.5t-22.5 -97z M903 596h567q0 152 -65.5 257t-200.5 105q-131 0 -216 -110.5t-85 -251.5z" />
<glyph unicode="&#xe7;" horiz-adv-x="909" d="M84 522q0 242 142.5 394.5t373.5 152.5q129 0 252 -41l-10 -123q-121 53 -224 53q-184 0 -288.5 -120.5t-104.5 -315.5q0 -184 103.5 -310t275.5 -126q109 0 236 47l12 -121q-106 -37 -268 -37h-4l-31 -86q55 6 67 7q63 0 106.5 -36t43.5 -98q0 -141 -225 -141 q-86 0 -207 45l14 76q86 -59 182 -59q106 0 107 75q0 35 -21.5 55.5t-56.5 20.5q-47 0 -86 -8l53 154q-215 20 -328.5 172.5t-113.5 369.5z" />
<glyph unicode="&#xe8;" horiz-adv-x="1024" d="M84 522q0 242 122 394.5t318 152.5q209 0 312.5 -145.5t103.5 -372.5v-66h-715q0 -174 90.5 -286.5t253.5 -112.5q70 0 158 23.5t135 54.5v-131q-139 -57 -303 -58q-246 0 -360.5 147.5t-114.5 399.5zM225 596h574q0 152 -65.5 257t-201 105t-221.5 -111.5t-86 -250.5z M276 1448h162l191 -295h-94z" />
<glyph unicode="&#xe9;" horiz-adv-x="1024" d="M84 522q0 242 122 394.5t318 152.5q209 0 312.5 -145.5t103.5 -372.5v-66h-715q0 -174 90.5 -286.5t253.5 -112.5q70 0 158 23.5t135 54.5v-131q-139 -57 -303 -58q-246 0 -360.5 147.5t-114.5 399.5zM225 596h574q0 152 -65.5 257t-201 105t-221.5 -111.5t-86 -250.5z M393 1153l191 295h161l-258 -295h-94z" />
<glyph unicode="&#xea;" horiz-adv-x="1024" d="M84 522q0 242 122 394.5t318 152.5q209 0 312.5 -145.5t103.5 -372.5v-66h-715q0 -174 90.5 -286.5t253.5 -112.5q70 0 158 23.5t135 54.5v-131q-139 -57 -303 -58q-246 0 -360.5 147.5t-114.5 399.5zM225 596h574q0 152 -65.5 257t-201 105t-221.5 -111.5t-86 -250.5z M238 1153l190 295h168l190 -295h-94l-180 209l-180 -209h-94z" />
<glyph unicode="&#xeb;" horiz-adv-x="1024" d="M84 522q0 242 122 394.5t318 152.5q209 0 312.5 -145.5t103.5 -372.5v-66h-715q0 -174 90.5 -286.5t253.5 -112.5q70 0 158 23.5t135 54.5v-131q-139 -57 -303 -58q-246 0 -360.5 147.5t-114.5 399.5zM225 596h574q0 152 -65.5 257t-201 105t-221.5 -111.5t-86 -250.5z M260 1219v172h154v-172h-154zM610 1219v172h154v-172h-154z" />
<glyph unicode="&#xec;" horiz-adv-x="454" d="M-8 1448h162l190 -295h-94zM162 0v1044h129v-1044h-129z" />
<glyph unicode="&#xed;" horiz-adv-x="454" d="M109 1153l190 295h162l-258 -295h-94zM162 0v1044h129v-1044h-129z" />
<glyph unicode="&#xee;" horiz-adv-x="454" d="M-47 1153l190 295h168l191 -295h-94l-181 209l-180 -209h-94zM162 0v1044h129v-1044h-129z" />
<glyph unicode="&#xef;" horiz-adv-x="454" d="M-25 1219v172h154v-172h-154zM162 0v1044h129v-1044h-129zM326 1219v172h153v-172h-153z" />
<glyph unicode="&#xf0;" d="M82 522.5q0 231.5 124 389t363 157.5q190 0 322 -162h4q-55 236 -240 385l-221 -137l-61 86l186 117q-121 74 -276 104l24 99q215 -29 373 -129l219 135l62 -86l-191 -117q287 -248 287 -758q0 -631 -488 -631q-240 0 -363.5 158t-123.5 389.5zM223 522.5 q0 -188.5 91.5 -312.5t255 -124t254.5 124t91 312.5t-91 312t-254.5 123.5t-255 -123.5t-91.5 -312z" />
<glyph unicode="&#xf1;" d="M154 1044h125v-186h4q43 92 117.5 151.5t220.5 59.5q184 0 270 -108.5t86 -292.5v-668h-129v635q0 324 -248 323q-84 0 -146.5 -33.5t-96 -92t-50 -122t-16.5 -132.5v-578h-129v799q0 161 -8 245zM287 1200q16 76 58 130t108 54q47 0 125 -24q84 -27 90 -27 q35 0 63.5 18.5t36.5 51.5h76q-14 -98 -65.5 -139t-104.5 -41q-47 0 -127 26q-74 25 -96 25q-37 0 -56.5 -17.5t-34.5 -56.5h-73z" />
<glyph unicode="&#xf2;" d="M82 522.5q0 231.5 124 389t363.5 157.5t363.5 -157.5t124 -389t-124 -389.5t-363.5 -158t-363.5 158t-124 389.5zM223 522.5q0 -188.5 91.5 -312.5t255 -124t254.5 124t91 312.5t-91 312t-254.5 123.5t-255 -123.5t-91.5 -312zM334 1448h162l190 -295h-94z" />
<glyph unicode="&#xf3;" d="M82 522.5q0 231.5 124 389t363.5 157.5t363.5 -157.5t124 -389t-124 -389.5t-363.5 -158t-363.5 158t-124 389.5zM223 522.5q0 -188.5 91.5 -312.5t255 -124t254.5 124t91 312.5t-91 312t-254.5 123.5t-255 -123.5t-91.5 -312zM451 1153l190 295h162l-258 -295h-94z" />
<glyph unicode="&#xf4;" d="M82 522.5q0 231.5 124 389t363.5 157.5t363.5 -157.5t124 -389t-124 -389.5t-363.5 -158t-363.5 158t-124 389.5zM223 522.5q0 -188.5 91.5 -312.5t255 -124t254.5 124t91 312.5t-91 312t-254.5 123.5t-255 -123.5t-91.5 -312zM295 1153l190 295h168l191 -295h-94 l-181 209l-180 -209h-94z" />
<glyph unicode="&#xf5;" d="M82 522.5q0 231.5 124 389t363.5 157.5t363.5 -157.5t124 -389t-124 -389.5t-363.5 -158t-363.5 158t-124 389.5zM223 522.5q0 -188.5 91.5 -312.5t255 -124t254.5 124t91 312.5t-91 312t-254.5 123.5t-255 -123.5t-91.5 -312zM287 1200q16 76 58 130t108 54 q47 0 125 -24q84 -27 90 -27q35 0 63.5 18.5t36.5 51.5h76q-14 -98 -65.5 -139t-104.5 -41q-47 0 -127 26q-74 25 -96 25q-37 0 -56.5 -17.5t-34.5 -56.5h-73z" />
<glyph unicode="&#xf6;" d="M82 522.5q0 231.5 124 389t363.5 157.5t363.5 -157.5t124 -389t-124 -389.5t-363.5 -158t-363.5 158t-124 389.5zM223 522.5q0 -188.5 91.5 -312.5t255 -124t254.5 124t91 312.5t-91 312t-254.5 123.5t-255 -123.5t-91.5 -312zM317 1219v172h154v-172h-154zM668 1219v172 h153v-172h-153z" />
<glyph unicode="&#xf7;" horiz-adv-x="1228" d="M94 449v141h1039v-141h-1039zM483 117q0 53 39 92t92.5 39t92 -40t38.5 -91q0 -49 -39.5 -90t-91.5 -41q-53 0 -92 40t-39 91zM483 921.5q0 53.5 39 92.5t92.5 39t92 -39t38.5 -92q0 -49 -39.5 -90t-91.5 -41q-53 0 -92 38.5t-39 92z" />
<glyph unicode="&#xf8;" d="M39 -23l154 177q-111 147 -111 368q0 231 124 389t363 158q201 0 320 -115l139 162l72 -59l-150 -172q106 -139 107 -363q0 -231 -124 -389t-364 -158q-190 0 -315 109l-143 -166zM223 522q0 -152 62 -262l520 598q-94 100 -236 100q-164 0 -255 -124t-91 -312zM340 182 q90 -96 229 -96q164 0 255 124t91 312q0 150 -57 256z" />
<glyph unicode="&#xf9;" d="M162 377v667h129v-634q0 -324 248 -324q84 0 146.5 34t96 92t50 121.5t16.5 133.5v577h129v-798q0 -162 8 -246h-125v186h-4q-43 -92 -117.5 -151.5t-220.5 -59.5q-184 0 -270 109t-86 293zM334 1448h162l190 -295h-94z" />
<glyph unicode="&#xfa;" d="M162 377v667h129v-634q0 -324 248 -324q84 0 146.5 34t96 92t50 121.5t16.5 133.5v577h129v-798q0 -162 8 -246h-125v186h-4q-43 -92 -117.5 -151.5t-220.5 -59.5q-184 0 -270 109t-86 293zM451 1153l190 295h162l-258 -295h-94z" />
<glyph unicode="&#xfb;" d="M162 377v667h129v-634q0 -324 248 -324q84 0 146.5 34t96 92t50 121.5t16.5 133.5v577h129v-798q0 -162 8 -246h-125v186h-4q-43 -92 -117.5 -151.5t-220.5 -59.5q-184 0 -270 109t-86 293zM295 1153l190 295h168l191 -295h-94l-181 209l-180 -209h-94z" />
<glyph unicode="&#xfc;" d="M162 377v667h129v-634q0 -324 248 -324q84 0 146.5 34t96 92t50 121.5t16.5 133.5v577h129v-798q0 -162 8 -246h-125v186h-4q-43 -92 -117.5 -151.5t-220.5 -59.5q-184 0 -270 109t-86 293zM317 1219v172h154v-172h-154zM668 1219v172h153v-172h-153z" />
<glyph unicode="&#xfd;" horiz-adv-x="909" d="M18 1044h142l293 -870h2l301 870h135l-418 -1200q-98 -287 -268 -286q-70 0 -139 16l12 111q49 -16 96 -17q76 0 114 54.5t74 173.5l27 92zM336 1153l190 295h162l-258 -295h-94z" />
<glyph unicode="&#xfe;" d="M150 -430v1966h129v-682h4q92 215 325 215q221 0 325.5 -147.5t104.5 -399.5q0 -242 -111.5 -394.5t-318.5 -152.5q-123 0 -200.5 52.5t-124.5 162.5h-4v-620h-129zM279 522.5q0 -104.5 27.5 -199t100 -166t181.5 -71.5q88 0 151.5 39t96 104.5t47 138t14.5 154.5 t-14.5 155t-47 138.5t-96 104t-151.5 38.5q-109 0 -181.5 -71.5t-100 -165.5t-27.5 -198.5z" />
<glyph unicode="&#xff;" horiz-adv-x="909" d="M18 1044h142l293 -870h2l301 870h135l-418 -1200q-98 -287 -268 -286q-70 0 -139 16l12 111q49 -16 96 -17q76 0 114 54.5t74 173.5l27 92zM203 1219v172h153v-172h-153zM553 1219v172h154v-172h-154z" />
<glyph unicode="&#x152;" horiz-adv-x="1820" d="M111 714.5q0 139.5 32.5 265.5t97 232.5t177 169t260.5 62.5l172 -6q115 -8 172 -8h651v-123h-555v-510h527v-123h-527v-551h580v-123h-676l-172 -6q-115 -8 -172 -8q-147 0 -260 62.5t-177.5 169t-97 232t-32.5 265zM252 715q0 -123 22.5 -223.5t56.5 -162t83 -106.5 t90 -65.5t92 -32.5t72.5 -13t48.5 -1q109 0 260 12v1184q-227 12 -260 12q-27 0 -48.5 -1t-72.5 -13.5t-92 -33t-90 -65.5t-83 -106.5t-56.5 -161.5t-22.5 -223z" />
<glyph unicode="&#x153;" horiz-adv-x="1820" d="M74 522.5q0 231.5 124 389t363 157.5q289 0 393 -225q117 225 375 225q207 0 311.5 -147.5t104.5 -366.5v-70h-715q0 -174 90 -286.5t254 -112.5q70 0 158 23.5t135 54.5v-131q-139 -57 -303 -58q-289 0 -401 213q-123 -213 -402 -213q-240 0 -363.5 158t-123.5 389.5z M215 522.5q0 -188.5 91 -312.5t255 -124q328 0 328 436t-328 436q-164 0 -255 -123.5t-91 -312zM1030 596h574q0 150 -70 256t-197 106q-145 0 -226 -99t-81 -263z" />
<glyph unicode="&#x178;" horiz-adv-x="1251" d="M25 1430h163l437 -699l448 699h154l-531 -824v-606h-141v606zM375 1552v172h153v-172h-153zM725 1552v172h154v-172h-154z" />
<glyph unicode="&#x2c6;" horiz-adv-x="454" d="M-47 1171l190 295h168l191 -295h-94l-181 209l-180 -209h-94z" />
<glyph unicode="&#x2dc;" horiz-adv-x="454" d="M-55 1219q16 76 58 130t108 54q47 0 125 -25q84 -27 90 -26q35 0 63.5 18.5t36.5 50.5h76q-14 -98 -65.5 -139t-104.5 -41q-47 0 -127 27q-74 25 -96 24q-37 0 -56.5 -17.5t-34.5 -55.5h-73z" />
<glyph unicode="&#x2013;" horiz-adv-x="1024" d="M0 496v110h1024v-110h-1024z" />
<glyph unicode="&#x2014;" horiz-adv-x="2048" d="M0 496v110h2048v-110h-2048z" />
<glyph unicode="&#x2018;" horiz-adv-x="569" d="M147 983l158 447h117l-121 -447h-154z" />
<glyph unicode="&#x2019;" horiz-adv-x="569" d="M147 983l121 447h154l-158 -447h-117z" />
<glyph unicode="&#x201a;" horiz-adv-x="569" d="M147 -274l121 446h154l-158 -446h-117z" />
<glyph unicode="&#x201c;" d="M252 983l158 447h116l-120 -447h-154zM612 983l158 447h117l-121 -447h-154z" />
<glyph unicode="&#x201d;" d="M252 983l121 447h153l-157 -447h-117zM612 983l121 447h154l-158 -447h-117z" />
<glyph unicode="&#x201e;" d="M252 -274l121 446h153l-155 -446h-119zM612 -274l121 446h154l-158 -446h-117z" />
<glyph unicode="&#x2022;" horiz-adv-x="1024" d="M156 714.5q0 147.5 104.5 253t251.5 105.5t252.5 -105.5t105.5 -253t-105.5 -252t-252.5 -104.5t-251.5 104.5t-104.5 252z" />
<glyph unicode="&#x2026;" horiz-adv-x="2048" d="M260 0v172h166v-172h-166zM942 0v172h166v-172h-166zM1624 0v172h166v-172h-166z" />
<glyph unicode="&#x2039;" horiz-adv-x="569" d="M80 551l287 420h120l-272 -420l272 -420h-120z" />
<glyph unicode="&#x203a;" horiz-adv-x="569" d="M82 131l272 420l-272 420h121l286 -420l-286 -420h-121z" />
<glyph unicode="&#x20ac;" d="M29 524l22 99h150q-8 92 0 184h-172l22 98h164q51 252 224 400.5t429 148.5q172 0 291 -51l-26 -129q-100 59 -267 59q-197 0 -328.5 -115.5t-177.5 -312.5h699l-23 -98h-694q-10 -92 0 -184h657l-20 -99h-619q45 -197 176.5 -311.5t327.5 -114.5q158 0 269 56l12 -131 q-104 -47 -281 -48q-258 0 -430 146.5t-221 402.5h-184z" />
<glyph unicode="&#x2122;" horiz-adv-x="2027" d="M131 1331v99h666v-99h-269v-749h-129v749h-268zM979 582v848h209l250 -654l250 654h208v-848h-129v737h-4l-282 -737h-88l-281 737h-4v-737h-129z" />
<glyph unicode="&#xe000;" horiz-adv-x="1045" d="M0 1045h1045v-1045h-1045v1045z" />
<glyph unicode="&#xfb01;" d="M39 934v110h211v76q0 82 3 132.5t17.5 116t42 102t82 63.5t131.5 27q86 0 121 -21l-8 -113q-41 23 -102 23q-29 0 -52.5 -6t-39.5 -21l-27 -26q-12 -12 -20 -38l-11 -40q-4 -14 -6 -47t-2 -46v-48v-43v-91h235v-110h-235v-934h-129v934h-211zM825 0v1044h129v-1044h-129z M825 1323v172h129v-172h-129z" />
<glyph unicode="&#xfb02;" d="M39 934v110h211v76q0 82 3 132.5t17.5 116t42 102t82 63.5t131.5 27q86 0 121 -21l-8 -113q-41 23 -102 23q-29 0 -52.5 -6t-39.5 -21l-27 -26q-12 -12 -20 -38l-11 -40q-4 -14 -6 -47t-2 -46v-48v-43v-91h235v-110h-235v-934h-129v934h-211zM825 0v1536h129v-1536h-129z " />
<glyph unicode="&#xfb03;" horiz-adv-x="1818" d="M1526 0v1044h129v-1044h-129zM1526 1323v172h129v-172h-129zM721 934v110h211v76q0 82 3 132.5t17.5 116t42 102t82 63.5t131.5 27q86 0 121 -21l-8 -113q-41 23 -102 23q-29 0 -52.5 -6t-39.5 -21l-27 -26q-12 -12 -20 -38l-11 -40q-4 -14 -6 -47t-2 -46v-48v-43v-91 h235v-110h-235v-934h-129v934h-211zM39 934v110h211v76q0 82 3 132.5t17.5 116t42 102t82 63.5t131.5 27q86 0 121 -21l-8 -113q-41 23 -102 23q-29 0 -52.5 -6t-39.5 -21l-27 -26q-12 -12 -20 -38l-11 -40q-4 -14 -6 -47t-2 -46v-48v-43v-91h235v-110h-235v-934h-129v934 h-211z" />
<glyph unicode="&#xfb04;" horiz-adv-x="1818" d="M1526 0v1536h129v-1536h-129zM721 934v110h211v76q0 82 3 132.5t17.5 116t42 102t82 63.5t131.5 27q86 0 121 -21l-8 -113q-41 23 -102 23q-29 0 -52.5 -6t-39.5 -21l-27 -26q-12 -12 -20 -38l-11 -40q-4 -14 -6 -47t-2 -46v-48v-43v-91h235v-110h-235v-934h-129v934 h-211zM39 934v110h211v76q0 82 3 132.5t17.5 116t42 102t82 63.5t131.5 27q86 0 121 -21l-8 -113q-41 23 -102 23q-29 0 -52.5 -6t-39.5 -21l-27 -26q-12 -12 -20 -38l-11 -40q-4 -14 -6 -47t-2 -46v-48v-43v-91h235v-110h-235v-934h-129v934h-211z" />
</font>
</defs>
</svg>
